<svg xmlns="http://www.w3.org/2000/svg" xmlns:xlink="http://www.w3.org/1999/xlink" version="1.0" x="0px" y="0px" viewBox="0 0 100 100" enable-background="new 0 0 100 100" xml:space="preserve"><g><g><path d="M25.760355,37.8998108c6.3486004,0.2842789,11.961359,0.8900375,16.6827602,1.8005981    c0.0768013,0.0146408,0.1535988,0.0217209,0.2285995,0.0217209c0.5636406,0,1.0663185-0.3989983,1.1770859-0.9727211    c0.1253929-0.6508789-0.2999992-1.2802773-0.951004-1.4055595c-4.83564-0.9328804-10.5655212-1.5522003-17.0296803-1.8416405    c-0.6691208-0.0217171-1.2228012,0.4833603-1.2526817,1.1449203C24.585556,37.3091698,25.0988007,37.8699303,25.760355,37.8998108    z"/><path d="M42.8977966,45.6975288c-4.83564-0.9328804-10.5655212-1.5522003-17.0296803-1.8416405    c-0.6691208-0.0134392-1.2228012,0.4833603-1.2526817,1.1449203c-0.0298786,0.6621628,0.483366,1.2229195,1.1449203,1.2528    c6.3486004,0.2841606,11.961359,0.8900414,16.6827602,1.800602c0.0768013,0.0146408,0.1535988,0.0215988,0.2285995,0.0215988    c0.5636406,0,1.0663185-0.3989983,1.1770859-0.972599C43.9741936,46.4522095,43.5488014,45.8229294,42.8977966,45.6975288z"/><path d="M42.8977966,54.0512085c-4.83564-0.9327583-10.5655212-1.5520782-17.0296803-1.8416367    c-0.6691208-0.0052834-1.2228012,0.4840775-1.2526817,1.1449165c-0.0298786,0.6621628,0.483366,1.2229233,1.1449203,1.2528    c6.3486004,0.2841606,11.961359,0.8900414,16.6827602,1.800602c0.0768013,0.0146408,0.1535988,0.0215988,0.2285995,0.0215988    c0.5636406,0,1.0663185-0.3989983,1.1770859-0.972599C43.9741936,54.8058891,43.5488014,54.176609,42.8977966,54.0512085z"/><path d="M42.8977966,62.4048882c-4.83564-0.9327583-10.5655212-1.5520782-17.0296803-1.8415184    c-0.6691208-0.0182381-1.2228012,0.4833603-1.2526817,1.1449203c-0.0298786,0.6620407,0.483366,1.2228012,1.1449203,1.2526817    c6.3486004,0.2841568,11.961359,0.8900375,16.6827602,1.800602c0.0768013,0.0146332,0.1535988,0.0217133,0.2285995,0.0217133    c0.5636406,0,1.0663185-0.3991165,1.1770859-0.9727173C43.9741936,63.1595688,43.5488014,62.5302887,42.8977966,62.4048882z"/><path d="M57.3282738,39.7221298c0.0750008,0,0.1518021-0.0070801,0.2285995-0.0217209    c4.7214012-0.9105606,10.3341637-1.5163193,16.6827583-1.8005981c0.6615677-0.0298805,1.1748047-0.590641,1.1449203-1.2526817    c-0.0298767-0.662159-0.5823593-1.1636391-1.2526779-1.1449203c-6.4641571,0.2894402-12.1940384,0.9087601-17.0296783,1.8416405    c-0.6509933,0.1252823-1.0764008,0.7546806-0.9509964,1.4055595    C56.2619553,39.3237305,56.7646332,39.7221298,57.3282738,39.7221298z"/><path d="M57.3282738,48.0758095c0.0750008,0,0.1518021-0.006958,0.2285995-0.0215988    c4.7214012-0.9105606,10.3341637-1.5164413,16.6827583-1.800602c0.6615677-0.0298805,1.1748047-0.5906372,1.1449203-1.2528    c-0.0298767-0.6620369-0.5823593-1.1765976-1.2526779-1.1449203c-6.4641571,0.2894402-12.1940384,0.9087601-17.0296783,1.8416405    c-0.6509933,0.1254005-1.0764008,0.7546806-0.9509964,1.4056816    C56.2619553,47.6774101,56.7646332,48.0758095,57.3282738,48.0758095z"/><path d="M57.3282738,56.4294891c0.0750008,0,0.1518021-0.006958,0.2285995-0.0215988    c4.7214012-0.9105606,10.3341637-1.5164413,16.6827583-1.800602c0.6615677-0.0298767,1.1748047-0.5906372,1.1449203-1.2528    c-0.0298767-0.661438-0.5823593-1.1683197-1.2526779-1.1449165c-6.4641571,0.2895584-12.1940384,0.9088783-17.0296783,1.8416367    c-0.6509933,0.1254005-1.0764008,0.7546806-0.9509964,1.4056816    C56.2619553,56.0310898,56.7646332,56.4294891,57.3282738,56.4294891z"/><path d="M74.1318741,60.5633698c-6.4641571,0.2894402-12.1940384,0.9087601-17.0296783,1.8415184    c-0.6509933,0.1254005-1.0764008,0.7546806-0.9509964,1.4056816c0.1107559,0.5742035,0.6134338,0.9727173,1.1770744,0.9727173    c0.0750008,0,0.1518021-0.0070801,0.2285995-0.0217133c4.7214012-0.9105644,10.3341637-1.5164452,16.6827583-1.800602    c0.6615677-0.0298805,1.1748047-0.590641,1.1449203-1.2526817C75.3546753,61.0461311,74.8021927,60.5270119,74.1318741,60.5633698    z"/><path d="M82.821312,22.4351692c-20.7467957,0-30.2873955,4.6689606-32.821312,6.1714802    c-2.5339241-1.5025196-12.0745239-6.1714802-32.8213234-6.1714802c-0.6626415,0-1.2000008,0.5373611-1.2000008,1.2000008    v49.6693192c0,0.6627579,0.5373592,1.2000046,1.2000008,1.2000046c23.2787971,0,32.03088,6.1031952,32.1164398,6.1652374    c0.0405579,0.0293961,0.0867577,0.0418777,0.1294785,0.0655212c0.023407,0.0129547,0.0429611,0.0296402,0.0670815,0.0409164    c0.0287971,0.0136795,0.0566368,0.0255585,0.0867577,0.0369644c0.1369209,0.0517197,0.2778015,0.0851974,0.4203682,0.0851974    l0.0005913-0.0002441c0.0001221,0,0.0003624,0.0002441,0.0003624,0.0002441c0.0142784,0,0.0259209-0.0075607,0.039959-0.0080414    c0.1281586-0.0039597,0.2545204-0.0307159,0.3776398-0.0763168c0.028801-0.0108032,0.0564003-0.0202789,0.0839996-0.0331192    c0.0306015-0.0141602,0.0553207-0.0348053,0.0847206-0.0514832c0.0390015-0.021843,0.0816002-0.0328827,0.1188011-0.059639    c0.0855598-0.0620422,8.8376389-6.1652374,32.116436-6.1652374c0.6626434,0,1.2000046-0.5372467,1.2000046-1.2000046V23.63517    C84.0213165,22.9725304,83.4839554,22.4351692,82.821312,22.4351692z M18.3786755,24.8404503    c19.4114399,0.1779594,28.3406391,4.6338005,30.4213238,5.8507195v46.9316406    c-3.6694832-1.8481216-12.9163246-5.3584824-30.4213238-5.5130386V24.8404503z M81.621315,72.1097717    c-17.5049973,0.1545563-26.7518387,3.664917-30.4213142,5.5130386V30.6917706    c2.0869141-1.2208805,11.0169525-5.673481,30.4213142-5.8513203V72.1097717z"/></g></g></svg>