<svg xmlns="http://www.w3.org/2000/svg" xmlns:xlink="http://www.w3.org/1999/xlink" version="1.0" x="0px" y="0px" viewBox="0 0 100 100" enable-background="new 0 0 100 100" xml:space="preserve"><g><g><path fill="#000000" d="M72.6606445,81.6552734C67.0371094,84.8930664,58.777832,86.75,50,86.75    c-15.8100586,0-29.1665039-6.1630859-29.1665039-13.4584961c0-0.5927124,0.0916138-1.1853027,0.2701416-1.7737427    l4.2669678,3.8464966C25.6577148,75.6225586,26.0166016,75.75,26.3745117,75.75    c0.4101562,0,0.8183594-0.1669922,1.1147461-0.4956055c0.5546875-0.6152344,0.5053711-1.5639648-0.1098633-2.1186523    l-5.7832031-5.2128906c-0.0105591-0.0095215-0.0240479-0.0137329-0.03479-0.0228882    c-0.0603638-0.0513916-0.1217651-0.1021118-0.1917725-0.1445923c-0.0325928-0.0197754-0.0675049-0.0311279-0.1008911-0.0480957    c-0.0337524-0.0172119-0.0665283-0.0337524-0.1013184-0.0482788c-0.1196899-0.0500488-0.2418823-0.088562-0.366333-0.1060181    c-0.0163574-0.0023193-0.0328369-0.0006104-0.0492554-0.0023804c-0.1159058-0.0123901-0.2310791-0.0090332-0.345459,0.0053101    c-0.0343628,0.0042725-0.0678101,0.0081177-0.1019897,0.0148315c-0.1276245,0.0250244-0.2514648,0.0639038-0.3688965,0.1209717    c-0.0064087,0.0031128-0.0135498,0.0032959-0.0199585,0.0065308l-8.0917969,4.0878906    c-0.7397461,0.3735352-1.0361328,1.2758789-0.6625977,2.0151367c0.3740234,0.7392578,1.2758789,1.0351562,2.0151367,0.6625977    l4.7456055-2.3973389c-0.0559692,0.406189-0.0883789,0.8144531-0.0883789,1.2249756    C17.8334961,82.5205078,31.9628906,89.75,50,89.75c9.2875977,0,18.0927734-2.0029297,24.1577148-5.4951172    c0.7177734-0.4130859,0.9648438-1.3305664,0.5512695-2.0483398C74.2949219,81.4887695,73.378418,81.2416992,72.6606445,81.6552734    z"/><path fill="#000000" d="M89.2260742,71.9858398c-0.3735352-0.7402344-1.2763672-1.034668-2.0151367-0.6625977    l-5.0795288,2.5664062c0.0133667-0.1992798,0.0350952-0.3981934,0.0350952-0.5981445    c0-6.6138916-7.2577515-12.199585-18.008606-14.8346558l0.5114746-5.539978    c5.5489502-4.3598022,9.1235962-11.1243286,9.1235962-18.7122803c0-13.1196289-10.6733398-23.7929688-23.7929688-23.7929688    S26.2070312,21.0849609,26.2070312,34.2045898c0,7.5879517,3.574646,14.352478,9.1235962,18.7122803l0.513855,5.5658569    c-2.8816528,0.7096558-5.5645142,1.6305542-7.939209,2.7643433c-0.7475586,0.3569336-1.0639648,1.2524414-0.7070312,2    s1.2529297,1.0639648,2,0.7070312c2.0774536-0.9918823,4.409668-1.8165894,6.9241333-2.461731l1.18573,12.8435669    c0.0087891,0.0952148,0.0263672,0.1875,0.0522461,0.2763672C37.9643555,77.6010742,43.7324219,80.1665039,50,80.1665039    c6.2636719,0,12.0283203-2.5625,12.6386719-5.5488281c0.0263672-0.090332,0.0444336-0.1845703,0.0532227-0.2817383    l1.1837769-12.8220825c9.0258789,2.3182373,15.2908325,6.7820435,15.2908325,11.7776489    c0,0.2720337-0.0245972,0.5442505-0.062439,0.8164062l-4.0874634-3.6850586    c-0.6142578-0.5537109-1.5639648-0.5048828-2.1186523,0.1098633c-0.5546875,0.6152344-0.5053711,1.5639648,0.1098633,2.1186523    l5.7832031,5.2133789c0.182251,0.1642456,0.4009399,0.2573242,0.6283569,0.3167725    c0.1032104,0.0305786,0.206604,0.0492554,0.3110962,0.0570068c0.0222778,0.0009766,0.0430908,0.0119629,0.0654297,0.0119629    c0.0068359,0,0.0135498-0.0022583,0.0203857-0.0023804c0.0084839,0.0001221,0.0170288,0.0028687,0.0255127,0.0028687    c0.0855713,0,0.1680908-0.0206299,0.251709-0.0350342c0.0169067-0.003418,0.0340576-0.0030518,0.0508423-0.0070801    c0.1942139-0.0403442,0.3768921-0.1151123,0.5415039-0.2277222l7.8776245-3.9801636    C89.3032227,73.6274414,89.5996094,72.7250977,89.2260742,71.9858398z M29.2070312,34.2045898    c0-11.465332,9.3276367-20.7929688,20.7929688-20.7929688s20.7929688,9.3276367,20.7929688,20.7929688    c0,6.4637451-2.9658203,12.2467651-7.6067505,16.0634766c-1.4783325,1.2158203-3.130127,2.2252197-4.9069824,3    c-2.1560059,0.9401855-4.4990845,1.5263062-6.9579468,1.6832275V42.9048462l6.6230469-11.4712524    c0.2680664-0.4638672,0.2680664-1.0356445,0-1.5c-0.2675781-0.4638672-0.7626953-0.75-1.2988281-0.75H43.0019531    c-0.5361328,0-1.03125,0.2861328-1.2988281,0.75c-0.2680664,0.4643555-0.2680664,1.0361328,0,1.5l6.6181641,11.4627686v12.0266724    c-2.3282471-0.1893311-4.5494385-0.7605591-6.6005249-1.6549683c-1.7768555-0.7747803-3.4286499-1.7841797-4.9069824-3    C32.1728516,46.451355,29.2070312,40.668335,29.2070312,34.2045898z M49.8237305,39.4990234l-4.2236328-7.3154297h8.4472656    L49.8237305,39.4990234z M60.25177,68.1347046c-7.1483154,2.491394-13.5806885,1.4022217-13.6536255,1.3887329    c-0.8139648-0.1484375-1.59375,0.3950195-1.7407227,1.2099609c-0.1474609,0.8149414,0.394043,1.5952148,1.2094727,1.7426758    c0.1391602,0.0253906,1.7636719,0.3081055,4.2758789,0.3081055c2.5147705,0,5.9187012-0.2848511,9.6085205-1.3942871    l-0.2286377,2.4768066c-0.0102539,0.0507812-0.0180664,0.1020508-0.0234375,0.1547852    C59.4545898,74.8295898,55.7397461,77.1665039,50,77.1665039s-9.4545898-2.3369141-9.6938477-3.112793    c-0.0058594-0.059082-0.0151367-0.1166992-0.0273438-0.1738281l-0.8926392-9.6696777    c3.1383057,1.1915283,6.5316772,1.7858887,10.3623657,1.7858887c1.6928711,0,3.4711914-0.1142578,5.3476562-0.340332    c0.8222656-0.0991211,1.4086914-0.8461914,1.3095703-1.6689453c-0.0991211-0.8222656-0.8486328-1.4091797-1.6689453-1.3095703    c-6.3494263,0.7632446-11.2202148,0.1803589-15.6634521-1.8552856l-0.2744751-2.9729614l-0.2585449-2.8004761    c1.6155396,0.8917847,3.3459473,1.5979614,5.1617432,2.0970459c2.0073853,0.5518188,4.1176758,0.852478,6.2979126,0.852478    c2.1868896,0,4.3033447-0.3026123,6.3161621-0.857666c1.8091431-0.4988403,3.5333862-1.203064,5.1434937-2.0918579    l-0.2561035,2.7749023l-0.2797852,3.0307007L60.25177,68.1347046z"/></g></g></svg>