<svg xmlns="http://www.w3.org/2000/svg" xmlns:xlink="http://www.w3.org/1999/xlink" version="1.1" x="0px" y="0px" viewBox="0 0 100 100" enable-background="new 0 0 100 100" xml:space="preserve"><g><g><path d="M22.09033,77.24609c0.55029-0.05029,0.95557-0.53662,0.90576-1.08643c-0.12256-1.34766-0.30615-2.51416-0.4834-3.64258    c-0.18457-1.17578-0.35938-2.28613-0.47412-3.60303c-0.21094-2.42871-0.12451-2.86572,1.65576-4.20801    c1.12646-0.85059,2.2915-1.72998,3.36084-2.72266c1.97412-1.8335,2.51074-7.16602,2.56592-7.76807    c0.01172-0.12939-0.00195-0.26025-0.04053-0.38428c-0.02386-0.07788-0.36365-1.18091-0.74237-2.36139l0.11835-0.05072    c0.50732-0.21729,0.74268-0.80518,0.5249-1.31299c-0.21088-0.49347-0.77295-0.72253-1.27045-0.53381    c-0.05145-0.14862-0.10114-0.29028-0.14606-0.41394c-0.36523-1.00439-0.53223-3.72803-0.56543-4.69287    c-0.02002-0.55176-0.4917-0.98486-1.03418-0.96484c-0.55176,0.01904-0.98389,0.48193-0.96484,1.03418    c0.00513,0.14459,0.02686,0.71503,0.08002,1.44977C25.54712,46,25.51068,46.00189,25.47852,46.02148    c-1.81787,1.11133-3.64453,5.85498-6.02637,12.43555c-0.61426,1.69629-1.14453,3.16162-1.56201,4.15625    c-1.21436,2.89648-4.01758,7.90479-9.14404,8.90527c-3.16162,0.61572-4.09619-0.17773-4.19531-0.54541    c-0.08008-0.52441-0.5625-0.89307-1.09277-0.84277c-0.54932,0.05811-0.94775,0.55029-0.89014,1.09912    c0.01758,0.16357,0.1499,1.01465,1.07568,1.69873c0.73584,0.54395,1.75342,0.81641,3.03955,0.81641    c0.72998,0,1.5459-0.0874,2.4458-0.26318c6.03857-1.17822,9.23682-6.83057,10.60596-10.09473    c0.43604-1.04053,0.97461-2.52734,1.59766-4.24902c1.14252-3.15576,3.12268-8.62042,4.52441-10.67249    c0.08765,0.52753,0.1955,1.01172,0.32812,1.37659c0.41699,1.14648,1.20459,3.67383,1.42529,4.38672    c-0.20508,2.00635-0.87988,5.32666-1.91602,6.28906c-0.99463,0.92334-2.11865,1.77197-3.20459,2.5918    c-2.5415,1.9165-2.68848,3.16113-2.44336,5.97803c0.12061,1.38574,0.30859,2.58301,0.49072,3.74023    c0.17236,1.09668,0.35059,2.23047,0.4668,3.5127c0.04736,0.51953,0.4834,0.90967,0.99512,0.90967    C22.0293,77.25,22.05957,77.24854,22.09033,77.24609z"/><path d="M68.99268,76.80371c0.53564-0.13428,0.86133-0.67725,0.72754-1.21289c-0.27393-1.09473-0.79688-2.41748-1.0249-2.97217    c0.20337-1.58075,0.14001-3.80591-0.04095-6.12598l0.3642-0.07666c0.54053-0.11377,0.88623-0.64404,0.77246-1.18457    c-0.11328-0.54053-0.64746-0.88477-1.18457-0.77246l-0.13202,0.02777c-0.38422-3.75616-0.97461-7.36005-1.17413-8.53168    c0.90631-1.53552,1.35132-3.41718,1.55048-5.24408l0.21564-0.04205c0.54199-0.10547,0.896-0.63086,0.79004-1.17285    c-0.08643-0.44061-0.45276-0.74359-0.87543-0.78912c0.06024-2.68304-0.29962-4.87122-0.32916-5.04291    c-0.09326-0.54443-0.61279-0.91357-1.15479-0.81592c-0.54443,0.09326-0.90967,0.61084-0.81592,1.15479    c0.00421,0.02429,0.1391,0.84644,0.22974,2.06213c-0.4704-0.04059-0.92078,0.23737-1.05151,0.70837    c-0.14795,0.53223,0.16357,1.0835,0.6958,1.23096l0.26904,0.07471c0.05536,0.01544,0.11066,0.01721,0.16602,0.02301    c0.00452,2.33667-0.30389,5.17151-1.57471,7.09711c-0.04895,0.07397-0.07294,0.15845-0.1004,0.24133    c-4.12262,0.97577-8.72388,1.14001-12.45721,0.4115c-2.50635-0.48926-6.9751-3.97119-8.65723-5.28223    c-0.63965-0.49805-0.86914-0.6748-1.03809-0.77148c-0.48938-0.27979-1.03815-0.21814-1.5564-0.01752    c0.09937-2.78802-0.48138-5.47382-1.72827-7.75983c-0.26416-0.4834-0.87061-0.66309-1.35693-0.39893    c-0.48486,0.26465-0.66357,0.87207-0.39893,1.35693c0.70508,1.29236,1.14935,2.74298,1.35681,4.271H39.1875    c-0.55225,0-1,0.44775-1,1s0.44775,1,1,1h0.41858c-0.00824,1.60046-0.25922,3.24976-0.78772,4.88037    c-1.31543,4.05762-4.11865,7.44092-7.49805,9.05029c-0.76953,0.36621-2.14148,1.13647-3.46576,1.90167l-0.07721-0.28302    c-0.146-0.5332-0.69727-0.84766-1.22803-0.70166c-0.53271,0.14551-0.84668,0.69531-0.70166,1.22803l0.1875,0.6875    c0.01044,0.03821,0.03369,0.06824,0.04816,0.10413c-0.94501,0.55762-1.64771,0.97986-1.72394,1.02576    c-0.18506,0.11133-0.32861,0.2793-0.41016,0.47949c-1.43652,3.52197,0.23926,8.60596,0.31104,8.82031    c0.1626,0.48291,0.66992,0.76416,1.16797,0.65771c0.18213-0.04102,0.77588-0.09375,1.1001,0.16846    c0.13721,0.11084,0.22217,0.28223,0.27393,0.47266c-0.87695,0.1084-2.6084,0.13867-4.06152,0.09229    c-0.57227-0.01123-1.01416,0.41553-1.03174,0.96729c-0.01758,0.55225,0.41553,1.01416,0.96729,1.03174    c0.61523,0.02002,1.16357,0.02881,1.65283,0.02881c3.50195,0,3.97559-0.4585,4.19287-0.66895    c0.22754-0.22021,0.35303-0.51074,0.35303-0.81787c0-1.48633-0.60352-2.27637-1.10938-2.67725    c-0.59277-0.46973-1.28076-0.6084-1.82666-0.62842C25.5249,73.5,25.03516,70.6709,25.69141,68.67676    c1.11768-0.66846,5.0415-3.00146,6.48877-3.69043c3.92383-1.86865,7.03662-5.60059,8.54053-10.23926    c0.26263-0.81012,0.4472-1.62585,0.59454-2.44092c0.02954-0.02057,0.06421-0.02814,0.09198-0.05225    c0.29053-0.25244,0.68457-0.51172,0.91455-0.60986c0.15137,0.11377,0.37256,0.2876,0.64941,0.50391    c2.11914,1.65088,6.52832,5.08594,9.50391,5.66699c1.68262,0.32812,3.52783,0.49023,5.42871,0.49023    c2.52814,0,5.14459-0.3031,7.61261-0.86499c0.54138,3.39349,1.72546,11.58844,1.16229,15.15405    c-0.0293,0.18604-0.00537,0.37646,0.06836,0.54932c0.00732,0.01709,0.72314,1.69434,1.03271,2.93262    c0.11377,0.4541,0.52148,0.75732,0.96924,0.75732C68.82959,76.8335,68.91113,76.82422,68.99268,76.80371z"/><path d="M96.22949,39.23584c-0.01904-0.09131-0.44678-2.08203-2.12939-3.44189c-0.02588-0.86377-0.30225-2.3999-1.80273-3.38086    c-1.66553-1.08936-3.07471-1.52295-5.19873-1.6001c-0.54883-0.01172-1.01562,0.41162-1.03564,0.96338    s0.41113,1.01562,0.96338,1.03564c1.74023,0.06299,2.83301,0.39648,4.17627,1.2749c1.0542,0.68945,0.89746,2.01172,0.8916,2.05908    c-0.05713,0.38818,0.11816,0.77441,0.44873,0.98682c0.98535,0.6333,1.44873,1.66113,1.63037,2.18213    c-0.28711,0.49365-0.87451,1.43311-1.58691,2.18506c-0.25171,0.26593-0.50946,0.32367-0.99573,0.19543    c0.34827-0.69006,0.75183-1.63971,0.86047-2.53381c0.22314-1.8418-1.46826-3.40381-1.66211-3.57568    c-0.41064-0.36523-1.04004-0.3291-1.40771,0.08203c-0.36768,0.41016-0.33252,1.04199,0.07666,1.41064    c0.3623,0.32666,1.08496,1.20654,1.00781,1.84229c-0.07941,0.6546-0.453,1.48334-0.76343,2.07196    c-1.08948-0.38031-2.31366-0.15778-3.81299,0.40967c-0.26923-0.10577-0.57642-0.10748-0.84888,0.04474l-0.27832,0.15576    c-0.1825,0.10205-0.30377,0.26056-0.39032,0.43475c-0.65533,0.29736-1.35352,0.63104-2.11749,0.99835    c-3.22559,1.55078-3.97314,5.0625-4.37451,6.94873c-0.05811,0.27197-0.10742,0.50635-0.15723,0.68945    c-0.16504,0.60547-1.604,1.90918-2.84424,2.74658c-0.10107,0.06787-0.18896,0.1543-0.25879,0.25342    c-1.8833,2.67725-3.43164,2.69678-3.4668,2.70459c-0.52441-0.03906-1.01562,0.33496-1.08252,0.87207    c-0.06836,0.54785,0.32031,1.04785,0.86816,1.11621c0.03564,0.00439,0.10938,0.01172,0.21729,0.01172    c0.0965,0,0.22278-0.0072,0.37024-0.0257c-0.07538,0.60944-0.18213,1.49036-0.30182,2.53168    c-0.01971,0.00055-0.03729-0.00824-0.05719-0.00647l-0.75,0.0625c-0.55029,0.0459-0.95947,0.5293-0.91357,1.07959    c0.04346,0.52197,0.48096,0.91699,0.99561,0.91699c0.02783,0,0.05566-0.00098,0.08398-0.00342l0.41742-0.03479    c-0.19226,1.79401-0.3775,3.72534-0.48016,5.31348c-0.5014-0.0741-0.98944,0.22931-1.11548,0.73206    c-0.13379,0.53613,0.19189,1.0791,0.72754,1.21289l0.30548,0.07635c0,0.00488-0.00031,0.01111-0.00031,0.01593    c0,3.48828,0.70361,5.76709,0.7334,5.8623c0.08301,0.26318,0.27051,0.48047,0.51904,0.60059    c0.24756,0.12012,0.53516,0.13184,0.79248,0.03369c0.4917-0.18848,0.8584-0.20801,1.08887-0.05713    c0.21631,0.1416,0.36719,0.43701,0.46582,0.74316c-0.98926,0.09229-2.77979,0.08643-4.29639,0.00635    c-0.54932-0.02979-1.02246,0.39404-1.05176,0.94531s0.39355,1.02246,0.94531,1.05176    c0.78857,0.04199,1.65186,0.07324,2.48096,0.07324c1.56787,0,3.01318-0.11133,3.59619-0.47021    c0.30664-0.18848,0.48828-0.52734,0.47559-0.88721c-0.0083-0.22314-0.11816-2.20752-1.50928-3.12842    c-0.39355-0.26025-0.99414-0.49561-1.81738-0.41553c-0.18604-0.90234-0.42285-2.43018-0.42285-4.35791    c0-3.27246,1.16748-12.40576,1.1792-12.49756c0.01007-0.07837-0.00842-0.15131-0.01617-0.22662    c0.76733-0.50342,1.6413-1.29468,2.5484-2.55072c0.76465-0.53125,3.08691-2.24756,3.50342-3.77441    c0.05762-0.2124,0.1167-0.48438,0.18359-0.79932c0.35352-1.65967,0.94482-4.4375,3.28467-5.5625    c2.70996-1.30273,4.85059-2.32959,5.92578-1.95703c0.25146,0.0874,0.50049,0.18945,0.74658,0.29004    C91,43.66406,92.65234,44.33838,94.03857,42.875c1.20752-1.27441,2.06299-2.90723,2.09863-2.97607    C96.24316,39.69482,96.27588,39.46094,96.22949,39.23584z"/><path d="M9.00049,70.87549c0.13379,0,0.26953-0.02734,0.40039-0.08447c6.54688-2.86279,8.73975-9.85889,10.6748-16.03174    c0.37451-1.19531,0.74121-2.36719,1.13135-3.47949c0.5752-1.6416,1.11279-2.96631,1.69092-4.16895    c1.20801-2.50977,2.5791-5.05029,4.42041-6.63232c1.31055-1.12598,3.53467-1.56543,5.49756-1.95312    c0.41455-0.08154,0.81738-0.16162,1.19922-0.24463c2.86572-0.62402,5.75244-0.80469,8.57764-0.53516    c2.07538,0.19763,4.09473,0.461,5.94617,0.72131l0.32483,0.97449c0.13965,0.41895,0.52979,0.68408,0.94873,0.68408    c0.10449,0,0.21143-0.0166,0.31641-0.05176c0.52393-0.1748,0.80713-0.74121,0.63232-1.26514l-0.00787-0.02368    c0.16028,0.02356,0.33765,0.04907,0.49323,0.07202c2.81055,0.41357,4.8457,0.71094,5.8335,0.64307    c0.75-0.01318,7.3916-0.16846,9.67676-1.51318l0.86426-0.51172c1.3833-0.82227,2.81396-1.67236,4.2832-2.33252    c0.78223-0.35205,1.69043-0.73877,2.57178-0.86963c0.73633-0.10986,1.50439-0.07471,2.31787-0.03809    c0.81885,0.0376,1.66699,0.07568,2.5415-0.03418c0.71667-0.09009,1.4234-0.21863,2.12219-0.36395    c-0.01678,0.45398,0.25958,0.87823,0.71667,1.00311c0.08838,0.02393,0.17676,0.03564,0.26367,0.03564    c0.43994-0.00049,0.84277-0.29248,0.96436-0.7373c0.68555-2.51465,1.66064-2.93994,1.75049-2.97412    c0.51367-0.11279,0.85645-0.6084,0.77197-1.13477c-0.0874-0.54541-0.604-0.91748-1.14551-0.8291    c-0.29224,0.04663-1.54572,0.37201-2.57678,2.44879c-0.04559,0.00507-0.0899-0.00488-0.13562,0.00677    c-0.96436,0.24414-1.96729,0.43311-2.98096,0.56055c-0.70557,0.08887-1.43164,0.05615-2.20166,0.02051    c-0.87207-0.03906-1.77441-0.08008-2.70312,0.05762c-1.1333,0.16895-2.19336,0.61719-3.09668,1.02393    c-1.57324,0.70703-3.05371,1.58643-4.48535,2.4375l-0.85596,0.50732c-1.38184,0.8125-6.06885,1.18994-8.74951,1.23926    c-0.83008,0.05566-2.97314-0.2583-5.45557-0.62451c-2.47754-0.36475-5.56152-0.81934-8.75586-1.12354    c-3.0293-0.28809-6.12305-0.09619-9.19287,0.57227c-0.36963,0.08057-0.75977,0.15771-1.16113,0.23682    c-2.20459,0.43555-4.70312,0.9292-6.41309,2.39795c-2.12061,1.82178-3.61719,4.57666-4.91895,7.28223    c-0.61182,1.271-1.17627,2.66113-1.77686,4.375c-0.39697,1.13232-0.771,2.3252-1.15234,3.54248    c-1.89502,6.04688-3.85498,12.2998-9.56787,14.79785c-0.50586,0.22119-0.73682,0.81055-0.51514,1.31689    C8.24805,70.65137,8.61523,70.87549,9.00049,70.87549z"/><path d="M29.66797,60.79297l-0.3125,0.3125c-0.39062,0.39062-0.39062,1.02344,0,1.41406    c0.19531,0.19531,0.45117,0.29297,0.70703,0.29297s0.51172-0.09766,0.70703-0.29297l0.3125-0.3125    c0.39062-0.39062,0.39062-1.02344,0-1.41406S30.05859,60.40234,29.66797,60.79297z"/><path d="M31.79297,58.07129c0.1084-0.5415-0.24268-1.06836-0.78418-1.17676c-0.54541-0.10986-1.06885,0.24268-1.17676,0.78418    l-0.125,0.625c-0.1084,0.5415,0.24268,1.06836,0.78418,1.17676C30.55762,59.49365,30.62354,59.5,30.68848,59.5    c0.4668,0,0.88477-0.32861,0.97949-0.80371L31.79297,58.07129z"/><path d="M33.87549,60.3125c0.23047,0,0.46191-0.0791,0.65039-0.24072l0.4375-0.375    c0.41943-0.35938,0.46777-0.99072,0.1084-1.41016c-0.35986-0.41943-0.99219-0.46826-1.41016-0.1084l-0.4375,0.375    c-0.41943,0.35938-0.46777,0.99072-0.1084,1.41016C33.31348,60.19385,33.59375,60.3125,33.87549,60.3125z"/><path d="M33.0332,57.47607C33.10596,57.49219,33.1792,57.5,33.25098,57.5c0.4585,0,0.87158-0.31689,0.9751-0.7832l0.125-0.5625    c0.12012-0.53906-0.22021-1.07324-0.75928-1.19287c-0.53809-0.12012-1.07373,0.21973-1.19287,0.75928l-0.125,0.5625    C32.15381,56.82227,32.49414,57.35645,33.0332,57.47607z"/><path d="M32.05469,53.50098l-0.0625-0.5c-0.06885-0.54834-0.57373-0.93896-1.11621-0.86816    c-0.54785,0.06836-0.93652,0.56836-0.86816,1.11621l0.0625,0.5c0.06299,0.50586,0.49414,0.87598,0.99072,0.87598    c0.0415,0,0.0835-0.00244,0.12549-0.00781C31.73438,54.54883,32.12305,54.04883,32.05469,53.50098z"/><path d="M33.75,49.8125c-0.55225,0-1,0.44775-1,1v0.375c0,0.55225,0.44775,1,1,1s1-0.44775,1-1v-0.375    C34.75,50.26025,34.30225,49.8125,33.75,49.8125z"/><path d="M35.74609,56.11377c0.15869,0.09229,0.33203,0.13623,0.50293,0.13623c0.34424,0,0.67871-0.17773,0.86475-0.49609    l0.4375-0.75c0.27832-0.47705,0.11719-1.08936-0.35986-1.36768c-0.479-0.27783-1.08936-0.11621-1.36768,0.35986l-0.4375,0.75    C35.10791,55.22314,35.26904,55.83545,35.74609,56.11377z"/><path d="M37.58203,50.10547c-0.39062-0.39062-1.02344-0.39062-1.41406,0l-0.3125,0.3125    c-0.39062,0.39062-0.39062,1.02344,0,1.41406c0.19531,0.19531,0.45117,0.29297,0.70703,0.29297s0.51172-0.09766,0.70703-0.29297    l0.3125-0.3125C37.97266,51.12891,37.97266,50.49609,37.58203,50.10547z"/><path d="M32.41797,49.13379l0.125-0.625c0.1084-0.5415-0.24268-1.06836-0.78418-1.17676    c-0.54395-0.10693-1.06934,0.24268-1.17676,0.78418l-0.125,0.625c-0.1084,0.5415,0.24268,1.06836,0.78418,1.17676    c0.06641,0.01318,0.13232,0.01953,0.19727,0.01953C31.90527,49.9375,32.32324,49.60889,32.41797,49.13379z"/><path d="M32.84912,43.17822l-0.4375,0.375c-0.41943,0.35938-0.46777,0.99072-0.1084,1.41016    c0.19775,0.23047,0.47803,0.34912,0.75977,0.34912c0.23047,0,0.46191-0.0791,0.65039-0.24072l0.4375-0.375    c0.41943-0.35938,0.46777-0.99072,0.1084-1.41016C33.89893,42.86719,33.26807,42.81836,32.84912,43.17822z"/><path d="M29.7207,46.41357c0.07275,0.01611,0.146,0.02393,0.21777,0.02393c0.4585,0,0.87158-0.31689,0.9751-0.7832l0.125-0.5625    c0.12012-0.53906-0.22021-1.07324-0.75928-1.19287c-0.53711-0.12109-1.07324,0.21973-1.19287,0.75928l-0.125,0.5625    C28.84131,45.75977,29.18164,46.29395,29.7207,46.41357z"/><path d="M35.63623,43.49609l-0.4375,0.75c-0.27832,0.47705-0.11719,1.08936,0.35986,1.36768    c0.15869,0.09229,0.33203,0.13623,0.50293,0.13623c0.34424,0,0.67871-0.17773,0.86475-0.49609l0.4375-0.75    c0.27832-0.47705,0.11719-1.08936-0.35986-1.36768C36.52588,42.8584,35.91455,43.01953,35.63623,43.49609z"/><path d="M34.74756,48.59619c0.19775,0.22559,0.47461,0.34131,0.75293,0.34131c0.2334,0,0.46826-0.08154,0.6582-0.24756l0.5-0.4375    c0.41553-0.36377,0.45752-0.99512,0.09375-1.41113c-0.36328-0.41504-0.99512-0.4585-1.41113-0.09375l-0.5,0.4375    C34.42578,47.54883,34.38379,48.18018,34.74756,48.59619z"/><path d="M29.38477,43.01953c0.49414-0.24707,0.69434-0.84766,0.44727-1.3418c-0.24756-0.49316-0.84619-0.69531-1.3418-0.44727    l-0.25,0.125c-0.49414,0.24707-0.69434,0.84766-0.44727,1.3418c0.17529,0.35059,0.52832,0.55273,0.89551,0.55273    c0.1499,0,0.30273-0.03369,0.44629-0.10547L29.38477,43.01953z"/><path d="M35.80273,39.54297l-0.25,0.125c-0.49414,0.24707-0.69434,0.84766-0.44727,1.3418    c0.17529,0.35059,0.52832,0.55273,0.89551,0.55273c0.1499,0,0.30273-0.03369,0.44629-0.10547l0.25-0.125    c0.49414-0.24707,0.69434-0.84766,0.44727-1.3418C36.89746,39.49658,36.29785,39.29492,35.80273,39.54297z"/><path d="M32.02393,40.00098l-0.5,0.1875c-0.51709,0.19434-0.7793,0.77051-0.58545,1.2876    c0.15088,0.40137,0.53174,0.64941,0.93652,0.64941c0.1167,0,0.23535-0.021,0.35107-0.06396l0.5-0.1875    c0.51709-0.19434,0.7793-0.77051,0.58545-1.2876C33.11719,40.06934,32.5415,39.81006,32.02393,40.00098z"/><path d="M39.75,38.8125c-0.55225,0-1,0.44775-1,1s0.44775,1,1,1h0.625c0.55225,0,1-0.44775,1-1s-0.44775-1-1-1H39.75z"/><path d="M42.6875,41.375c-0.55225,0-1,0.44775-1,1s0.44775,1,1,1h0.5c0.55225,0,1-0.44775,1-1s-0.44775-1-1-1H42.6875z"/><path d="M44.7832,40.72607c0.07275,0.01611,0.146,0.02393,0.21777,0.02393c0.4585,0,0.87158-0.31689,0.9751-0.7832    c0.12012-0.53906-0.22021-1.07324-0.75928-1.19287l-0.5625-0.125c-0.53662-0.12012-1.07324,0.21973-1.19287,0.75928    c-0.12012,0.53906,0.22021,1.07324,0.75928,1.19287L44.7832,40.72607z"/><path d="M47.6875,43.25c0.55225,0,1-0.44775,1-1s-0.44775-1-1-1h-0.5c-0.55225,0-1,0.44775-1,1s0.44775,1,1,1H47.6875z"/><path d="M44.625,46.5h0.5625c0.55225,0,1-0.44775,1-1s-0.44775-1-1-1H44.625c-0.55225,0-1,0.44775-1,1S44.07275,46.5,44.625,46.5z    "/><path d="M46.31592,49.61621l0.3125,0.125c0.12207,0.04834,0.24756,0.07178,0.37109,0.07178    c0.39697,0,0.77246-0.23828,0.9292-0.62891c0.20508-0.51318-0.04443-1.09473-0.55713-1.30029l-0.3125-0.125    c-0.51514-0.20557-1.09473,0.04443-1.30029,0.55713C45.55371,48.8291,45.80322,49.41064,46.31592,49.61621z"/><path d="M48.30273,46.89453C48.44629,46.96631,48.59912,47,48.74902,47c0.36719,0,0.72021-0.20215,0.89551-0.55273    c0.24707-0.49414,0.04688-1.09473-0.44727-1.3418l-0.25-0.125c-0.49561-0.24707-1.09521-0.04639-1.3418,0.44727    c-0.24707,0.49414-0.04688,1.09473,0.44727,1.3418L48.30273,46.89453z"/><path d="M51.30371,44.54297c0.06641,0.01318,0.13232,0.01953,0.19727,0.01953c0.4668,0,0.88477-0.32861,0.97949-0.80371    c0.1084-0.5415-0.24268-1.06836-0.78418-1.17676l-0.625-0.125c-0.5459-0.10938-1.06885,0.24316-1.17676,0.78418    c-0.1084,0.5415,0.24268,1.06836,0.78418,1.17676L51.30371,44.54297z"/><path d="M54.26465,42.49365C54.30225,42.49805,54.33936,42.5,54.37646,42.5c0.50244,0,0.93555-0.37842,0.99219-0.88965    c0.06104-0.54883-0.33447-1.04346-0.8833-1.104l-0.5625-0.0625c-0.5459-0.06055-1.04297,0.33447-1.104,0.8833    s0.33447,1.04346,0.8833,1.104L54.26465,42.49365z"/><path d="M52.625,47.5c0.55225,0,1-0.44775,1-1s-0.44775-1-1-1H52c-0.55225,0-1,0.44775-1,1s0.44775,1,1,1H52.625z"/><path d="M61.91895,44.43359c-0.10596-0.54248-0.63428-0.89648-1.17285-0.79004l-0.49072,0.0957    c-0.54199,0.10547-0.896,0.63086-0.79004,1.17285c0.09326,0.47754,0.51172,0.80859,0.98047,0.80859    c0.06348,0,0.12793-0.00586,0.19238-0.01855l0.49072-0.0957C61.6709,45.50098,62.0249,44.97559,61.91895,44.43359z"/><path d="M59.37939,41.93262c0.00439-0.55225-0.43994-1.00342-0.99219-1.00781L57.8877,40.9209c-0.00293,0-0.00537,0-0.00781,0    c-0.54883,0-0.99561,0.44238-1,0.99219c-0.00439,0.55225,0.43994,1.00342,0.99219,1.00781l0.49951,0.00391    c0.00293,0,0.00537,0,0.00781,0C58.92822,42.9248,59.375,42.48242,59.37939,41.93262z"/><path d="M62.21338,42.70117c0.54053,0,0.98535-0.43115,0.99902-0.97461c0.01416-0.55225-0.42188-1.01123-0.97412-1.0249    l-0.57617-0.01465c-0.56885-0.05273-1.01123,0.42139-1.0249,0.97412c-0.01416,0.55225,0.42188,1.01123,0.97412,1.0249    l0.57617,0.01465C62.19629,42.70117,62.20459,42.70117,62.21338,42.70117z"/><path d="M66.31152,43.44678c-0.10693-0.54199-0.62939-0.89648-1.17383-0.78906l-0.49072,0.09619    c-0.54199,0.10645-0.89502,0.63184-0.78906,1.17383c0.09375,0.47705,0.51172,0.80762,0.98047,0.80762    c0.06348,0,0.12842-0.00586,0.19336-0.01855l0.49072-0.09619C66.06445,44.51416,66.41748,43.98877,66.31152,43.44678z"/><path d="M62.94678,48.4165c0.06348,0,0.12793-0.00586,0.19287-0.01855l0.55176-0.10791    c0.54199-0.10596,0.89551-0.63135,0.78955-1.17334c-0.10645-0.5415-0.62891-0.89844-1.17334-0.78955l-0.55176,0.10791    c-0.54199,0.10596-0.89551,0.63135-0.78955,1.17334C62.05957,48.08545,62.47803,48.4165,62.94678,48.4165z"/><path d="M64.56494,52.07617c0.08691,0,0.17529-0.01172,0.26318-0.03564l0.32471-0.08838    c0.53271-0.14502,0.84717-0.69434,0.70215-1.22754c-0.14502-0.53271-0.69629-0.84717-1.22754-0.70215l-0.32471,0.08838    c-0.53271,0.14502-0.84717,0.69434-0.70215,1.22754C63.72168,51.7832,64.125,52.07617,64.56494,52.07617z"/><path d="M66.79883,41.55371l0.62061-0.14648c0.5376-0.12695,0.87061-0.66553,0.74365-1.20264    c-0.12646-0.53809-0.66895-0.87256-1.20264-0.74365l-0.62061,0.14648c-0.5376,0.12695-0.87061,0.66553-0.74365,1.20264    c0.1084,0.46045,0.51904,0.77051,0.97217,0.77051C66.64453,41.58057,66.72168,41.57227,66.79883,41.55371z"/><path d="M72.79541,45.26318c-0.19189-0.51855-0.76709-0.78174-1.28516-0.58984l-0.53076,0.19678    c-0.51758,0.19189-0.78174,0.76709-0.58984,1.28516c0.14941,0.40332,0.53125,0.65283,0.9375,0.65283    c0.11572,0,0.23291-0.02051,0.34766-0.06299l0.53076-0.19678C72.72314,46.35645,72.9873,45.78125,72.79541,45.26318z"/><path d="M56.75,44.5625c0-0.55225-0.44775-1-1-1h-0.4375c-0.55225,0-1,0.44775-1,1s0.44775,1,1,1H55.75    C56.30225,45.5625,56.75,45.11475,56.75,44.5625z"/><path d="M58,46.25h-0.4375c-0.55225,0-1,0.44775-1,1s0.44775,1,1,1H58c0.55225,0,1-0.44775,1-1S58.55225,46.25,58,46.25z"/><path d="M54.375,50.625h0.4375c0.55225,0,1-0.44775,1-1s-0.44775-1-1-1H54.375c-0.55225,0-1,0.44775-1,1    S53.82275,50.625,54.375,50.625z"/><path d="M60.18652,50.9375c0.06494,0,0.13086-0.00635,0.19727-0.01953l0.3125-0.0625    c0.5415-0.1084,0.89258-0.63525,0.78418-1.17676c-0.10791-0.54102-0.63135-0.89355-1.17676-0.78418l-0.3125,0.0625    c-0.5415,0.1084-0.89258,0.63525-0.78418,1.17676C59.30176,50.60889,59.71973,50.9375,60.18652,50.9375z"/><path d="M50.15039,52.30762l0.625,0.0625c0.03418,0.00342,0.06738,0.00488,0.10059,0.00488    c0.50781,0,0.94238-0.38477,0.99414-0.90039c0.05469-0.5498-0.34619-1.03955-0.89551-1.09473l-0.625-0.0625    c-0.55371-0.05273-1.03955,0.34619-1.09473,0.89551C49.2002,51.7627,49.60107,52.25244,50.15039,52.30762z"/><path d="M70.82275,40.11084l0.47559-0.15332c0.52588-0.16943,0.81445-0.73291,0.64502-1.2583    c-0.16895-0.52539-0.73291-0.81592-1.2583-0.64502l-0.47559,0.15332c-0.52588,0.16943-0.81445,0.73291-0.64502,1.2583    c0.13672,0.42383,0.52881,0.69385,0.95166,0.69385C70.61768,40.15967,70.72119,40.14404,70.82275,40.11084z"/><path d="M73.30664,41.2583l-0.27637-0.04199c-0.54688-0.08252-1.05615,0.29199-1.13916,0.83838s0.29248,1.05615,0.83838,1.13916    l0.27637,0.04199c0.05127,0.00781,0.10156,0.01123,0.15186,0.01123c0.48584,0,0.91211-0.35449,0.9873-0.84961    C74.22803,41.85107,73.85254,41.34131,73.30664,41.2583z"/><path d="M74.50586,40.14844l0.6333-0.07373c0.54834-0.06396,0.94141-0.56006,0.87744-1.10889s-0.56396-0.94482-1.10889-0.87744    l-0.6333,0.07373c-0.54834,0.06396-0.94141,0.56006-0.87744,1.10889c0.05908,0.50928,0.49121,0.88428,0.9917,0.88428    C74.42773,40.15527,74.46631,40.15332,74.50586,40.14844z"/><path d="M77.66699,35.92432c-0.11133-0.5415-0.63965-0.89307-1.18018-0.77881l-0.55469,0.11377    c-0.5415,0.11084-0.89014,0.63916-0.77881,1.18018c0.09717,0.47363,0.51367,0.79932,0.97852,0.79932    c0.06641,0,0.13428-0.00635,0.20166-0.02051l0.55469-0.11377C77.42969,36.99365,77.77832,36.46533,77.66699,35.92432z"/><path d="M76.09521,40.77148c-0.52588,0.17041-0.81396,0.73389-0.64404,1.25928c0.13721,0.42334,0.5293,0.69287,0.95166,0.69287    c0.10156,0,0.20557-0.01611,0.30762-0.04883l0.59473-0.19238c0.52588-0.17041,0.81396-0.73389,0.64404-1.25928    s-0.73193-0.81299-1.25928-0.64404L76.09521,40.77148z"/><path d="M84.37695,38.30713l0.4375-0.24219c0.48291-0.26758,0.6582-0.87598,0.39062-1.35938    c-0.26709-0.48242-0.87549-0.65723-1.35938-0.39062l-0.4375,0.24219c-0.48291,0.26758-0.6582,0.87598-0.39062,1.35938    c0.18262,0.32959,0.52393,0.51562,0.87598,0.51562C84.05713,38.43213,84.22363,38.39209,84.37695,38.30713z"/><path d="M80.69775,37.354l0.47705-0.1499c0.52686-0.16553,0.81982-0.72705,0.6543-1.25391    c-0.16504-0.52734-0.729-0.81689-1.25391-0.6543l-0.47705,0.1499c-0.52686,0.16553-0.81982,0.72705-0.6543,1.25391    c0.13428,0.42725,0.52881,0.70068,0.95361,0.70068C80.49707,37.40039,80.59814,37.38525,80.69775,37.354z"/><path d="M79.99316,38.24512c-0.17041-0.5249-0.73291-0.8125-1.25928-0.64404l-0.4165,0.13477    c-0.52588,0.17041-0.81396,0.73389-0.64404,1.25928c0.13721,0.42334,0.5293,0.69287,0.95166,0.69287    c0.10156,0,0.20557-0.01611,0.30762-0.04883l0.4165-0.13477C79.875,39.33398,80.16309,38.77051,79.99316,38.24512z"/><path d="M81.92627,41.72607c0.10156,0,0.20508-0.01611,0.30713-0.04883l0.41602-0.13428    c0.52539-0.16943,0.81396-0.7334,0.64453-1.25879c-0.16943-0.5249-0.73145-0.81396-1.25879-0.64453l-0.41602,0.13428    c-0.52539,0.16943-0.81396,0.7334-0.64453,1.25879C81.11133,41.45605,81.50391,41.72607,81.92627,41.72607z"/><path d="M86.19238,34.04834l-0.4165,0.13477c-0.52588,0.17041-0.81396,0.73389-0.64404,1.25928    c0.13721,0.42334,0.5293,0.69287,0.95166,0.69287c0.10156,0,0.20557-0.01611,0.30762-0.04883l0.4165-0.13477    c0.52588-0.17041,0.81396-0.73389,0.64404-1.25928C87.28125,34.16748,86.71875,33.87842,86.19238,34.04834z"/><path d="M78.24512,45.32666c0.52588-0.17041,0.81396-0.73389,0.64404-1.25928c-0.17041-0.5249-0.73193-0.81348-1.25928-0.64404    l-0.4165,0.13477c-0.52588,0.17041-0.81396,0.73389-0.64404,1.25928c0.13721,0.42334,0.5293,0.69287,0.95166,0.69287    c0.10156,0,0.20557-0.01611,0.30762-0.04883L78.24512,45.32666z"/><path d="M75.9668,48.65283c0.07031,0,0.14111-0.00732,0.2124-0.02246l0.61377-0.13281    c0.54004-0.11719,0.88281-0.64941,0.76611-1.18896s-0.646-0.88232-1.18896-0.76611l-0.61377,0.13281    c-0.54004,0.11719-0.88281,0.64941-0.76611,1.18896C75.0918,48.33301,75.50635,48.65283,75.9668,48.65283z"/><path d="M57.43652,53.9375c0.08057,0,0.16211-0.00928,0.24365-0.02979l0.5-0.125c0.53564-0.13379,0.86133-0.67676,0.72754-1.21289    c-0.13428-0.53564-0.67822-0.8623-1.21289-0.72754l-0.5,0.125c-0.53564,0.13379-0.86133,0.67676-0.72754,1.21289    C56.58105,53.63428,56.98877,53.9375,57.43652,53.9375z"/><path d="M72.30273,50.95703c0.14355,0.07178,0.29639,0.10547,0.44629,0.10547c0.36719,0,0.72021-0.20215,0.89551-0.55273    l0.1875-0.375c0.24707-0.49414,0.04688-1.09473-0.44727-1.3418c-0.49512-0.24756-1.09473-0.0459-1.3418,0.44727l-0.1875,0.375    C71.6084,50.10938,71.80859,50.70996,72.30273,50.95703z"/><path d="M70.03662,52.74072l-0.4375,0.375c-0.41943,0.35938-0.46777,0.99072-0.1084,1.41016    c0.19775,0.23047,0.47803,0.34912,0.75977,0.34912c0.23047,0,0.46191-0.0791,0.65039-0.24072l0.4375-0.375    c0.41943-0.35938,0.46777-0.99072,0.1084-1.41016C71.08691,52.42969,70.45508,52.38135,70.03662,52.74072z"/><path d="M86.37891,38.13184l-0.4375,0.25c-0.47949,0.27393-0.646,0.88477-0.37207,1.36426    c0.18457,0.32324,0.52197,0.50391,0.86914,0.50391c0.16797,0,0.33887-0.04248,0.49512-0.13184l0.4375-0.25    c0.47949-0.27393,0.646-0.88477,0.37207-1.36426C87.46973,38.02441,86.85889,37.85938,86.37891,38.13184z"/></g></g></svg>