<svg xmlns="http://www.w3.org/2000/svg" xmlns:xlink="http://www.w3.org/1999/xlink" version="1.0" x="0px" y="0px" viewBox="0 0 100 100" enable-background="new 0 0 100 100" xml:space="preserve"><g><path fill="#000000" d="M86.375,51.5c0.828125,0,1.5-0.6713867,1.5-1.5s-0.671875-1.5-1.5-1.5H75.75v-12h10.625   c0.828125,0,1.5-0.6713867,1.5-1.5s-0.671875-1.5-1.5-1.5H75.75v-7.75c0-0.8286133-0.671875-1.5-1.5-1.5H66.5V13.625   c0-0.8286133-0.671875-1.5-1.5-1.5s-1.5,0.6713867-1.5,1.5V24.25h-12V13.625c0-0.8286133-0.671875-1.5-1.5-1.5   s-1.5,0.6713867-1.5,1.5V24.25h-12V13.625c0-0.8286133-0.671875-1.5-1.5-1.5s-1.5,0.6713867-1.5,1.5V24.25h-7.75   c-0.828125,0-1.5,0.6713867-1.5,1.5v7.75H13.625c-0.828125,0-1.5,0.6713867-1.5,1.5s0.671875,1.5,1.5,1.5H24.25v12H13.625   c-0.828125,0-1.5,0.6713867-1.5,1.5s0.671875,1.5,1.5,1.5H24.25v12H13.625c-0.828125,0-1.5,0.6713867-1.5,1.5s0.671875,1.5,1.5,1.5   H24.25v7.75c0,0.8286133,0.671875,1.5,1.5,1.5h7.75v10.625c0,0.8286133,0.671875,1.5,1.5,1.5s1.5-0.6713867,1.5-1.5V75.75h12   v10.625c0,0.8286133,0.671875,1.5,1.5,1.5s1.5-0.6713867,1.5-1.5V75.75h12v10.625c0,0.8286133,0.671875,1.5,1.5,1.5   s1.5-0.6713867,1.5-1.5V75.75h7.75c0.828125,0,1.5-0.6713867,1.5-1.5V66.5h10.625c0.828125,0,1.5-0.6713867,1.5-1.5   s-0.671875-1.5-1.5-1.5H75.75v-12H86.375z M72.75,72.75h-45.5v-45.5h45.5V72.75z"/></g></svg>