<svg xmlns="http://www.w3.org/2000/svg" xmlns:xlink="http://www.w3.org/1999/xlink" version="1.0" x="0px" y="0px" viewBox="0 0 100 100" enable-background="new 0 0 100 100" xml:space="preserve"><g><g><path d="M78.3000031,15.1000004H32.7000008c-0.6626511,0-1.2000008,0.5373592-1.2000008,1.1999989v4.4004002    c0,0.1417198,0.0356293,0.2733612,0.0807495,0.399601h-4.8807487c-0.6626511,0-1.2000008,0.5373592-1.2000008,1.1999989    v62.3999977c0,0.6626434,0.5373497,1.2000046,1.2000008,1.2000046h45.6000023    c0.6626282,0,1.1999969-0.5373611,1.1999969-1.2000046V79.879837c0.0347977,0.003006,0.0646667,0.0201645,0.1001892,0.0201645    h4.6998138c0.6626282,0,1.1999969-0.5373611,1.1999969-1.2000046V16.2999992    C79.5,15.6373596,78.9626312,15.1000004,78.3000031,15.1000004z M71.0999985,23.5v49.1999969H27.8999996V23.5H71.0999985z     M27.8999996,83.5v-8.4000015h43.1999969V83.5H27.8999996z M77.0999985,77.5h-3.4998093    c-0.0355225,0-0.0653915,0.0171585-0.1001892,0.0201569V22.2999992c0-0.6626396-0.5373688-1.1999989-1.1999969-1.1999989    H33.8192291c0.0451202-0.1262398,0.0807724-0.2578812,0.0807724-0.399601V17.5h43.1999969V77.5z"/><rect x="36.2999992" y="43.9000015" width="26.3999996" height="2.4000001"/><rect x="36.2999992" y="52.2999992" width="26.3999996" height="2.4000001"/><rect x="41.0999985" y="35.5" width="16.7999992" height="2.4000001"/><rect x="43.5" y="60.7000008" width="12" height="2.4000001"/></g></g></svg>