<svg xmlns="http://www.w3.org/2000/svg" xmlns:xlink="http://www.w3.org/1999/xlink" version="1.0" x="0px" y="0px" viewBox="0 0 100 100" enable-background="new 0 0 100 100" xml:space="preserve"><g><path fill="#000000" d="M88,55.1665039c0.828125,0,1.5-0.6713867,1.5-1.5V46c0-0.8286133-0.671875-1.5-1.5-1.5   H68.9847412c-1.1817017-9.008667-8.6316528-16.0551758-17.8187256-16.6121216V23.5H66c0.828125,0,1.5-0.6713867,1.5-1.5V11.7246094   c0-0.8286133-0.671875-1.5-1.5-1.5H49.6665039c-0.8286133,0-1.5,0.6713867-1.5,1.5V22v5.9220581   C39.2862549,28.7698975,32.1688232,35.7090454,31.0157471,44.5H12c-0.8286133,0-1.5,0.6713867-1.5,1.5v7.6665039   c0,0.8286133,0.6713867,1.5,1.5,1.5h4.1665039V79.25H12c-0.8286133,0-1.5,0.6713867-1.5,1.5v7.6665039   c0,0.8286133,0.6713867,1.5,1.5,1.5h76c0.828125,0,1.5-0.6713867,1.5-1.5V80.75c0-0.8286133-0.671875-1.5-1.5-1.5h-3.3330078   V55.1665039H88z M51.1669922,13.2246094H64.5V20.5H51.1669922V13.2246094z M50,30.8334961   c8.0617676,0,14.7453003,5.9382935,15.9533691,13.6665039h-31.90625C35.255188,36.7717896,41.9382324,30.8334961,50,30.8334961z    M13.5,47.5h17.425293h2.8164062h32.5171509h2.8162842H86.5v4.6665039h-73V47.5z M62.8330078,79.25V55.1665039H70.75V79.25   H62.8330078z M51.9160156,79.25V55.1665039h7.9169922V79.25H51.9160156z M41,79.25V55.1665039h7.9165039V79.25H41z    M30.0834961,79.25V55.1665039H38V79.25H30.0834961z M19.1665039,55.1665039h7.9169922V79.25h-7.9169922V55.1665039z    M86.5,86.9165039h-73V82.25h73V86.9165039z M81.6669922,79.25H73.75V55.1665039h7.9169922V79.25z"/></g></svg>