<svg xmlns="http://www.w3.org/2000/svg" xmlns:xlink="http://www.w3.org/1999/xlink" version="1.0" x="0px" y="0px" viewBox="0 0 100 100" enable-background="new 0 0 100 100" xml:space="preserve"><g><path d="M88.6240234,33.5185547L50.7714844,10.8125c-0.4746094-0.2851562-1.0683594-0.2851562-1.5429688,0   L11.3759766,33.5185547c-0.4521484,0.2705078-0.7285156,0.7587891-0.7285156,1.2861328s0.2763672,1.015625,0.7285156,1.2861328   l11.7538452,7.0505371l-4.4335327,15.4445801c-0.1914062,0.6660156,0.0976562,1.375,0.6992188,1.7177734l29.8623047,17   C49.4882812,77.4345703,49.7441406,77.5,50,77.5s0.5117188-0.0654297,0.7421875-0.1962891l16.4248047-9.3503418v7.7458496   c-2.5501709,0.6671143-4.4404297,2.9838867-4.4404297,5.7402344c0,3.2753906,2.6650391,5.9404297,5.9404297,5.9404297   s5.9394531-2.6650391,5.9394531-5.9404297c0-2.7563477-1.8894043-5.0731201-4.4394531-5.7402344v-9.4536133l10.4375-5.9418945   c0.6015625-0.3427734,0.890625-1.0517578,0.6992188-1.7177734l-4.4335327-15.4445801l11.7538452-7.0505371   c0.4521484-0.2705078,0.7285156-0.7587891,0.7285156-1.2861328S89.0761719,33.7890625,88.6240234,33.5185547z    M71.6064453,81.4394531c0,1.6210938-1.3183594,2.9404297-2.9394531,2.9404297s-2.9404297-1.3193359-2.9404297-2.9404297   S67.0458984,78.5,68.6669922,78.5S71.6064453,79.8183594,71.6064453,81.4394531z M50,74.2744141L21.9052734,58.2802734   l3.8869629-13.541748L49.2285156,58.796875C49.4658203,58.9394531,49.7333984,59.0107422,50,59.0107422   s0.5341797-0.0712891,0.7714844-0.2138672l16.3955078-9.8349609v15.5394287L50,74.2744141z M78.0947266,58.2802734   l-7.9277344,4.5131836V47.1623535l4.0407715-2.4238281L78.0947266,58.2802734z M76.0135498,40.1572266l-2.6623535,1.5970459   l-4.947998,2.9681396L50.8046875,33.5390625C50.1044922,33.09375,49.1777344,33.3017578,48.734375,34   c-0.4443359,0.6992188-0.2382812,1.6259766,0.4609375,2.0703125l16.3306274,10.3779297L50,55.7617188L26.6488037,41.7542725   l-2.6623535-1.5970459l-8.9229736-5.3525391L50,13.8476562l34.9365234,20.9570312L76.0135498,40.1572266z"/></g></svg>