<svg xmlns="http://www.w3.org/2000/svg" xmlns:xlink="http://www.w3.org/1999/xlink" version="1.0" x="0px" y="0px" viewBox="0 0 100 100" enable-background="new 0 0 100 100" xml:space="preserve"><g><g><path fill="#000000" d="M34.2803955,73.2192993c-0.034668-16.2867432-0.8716431-36.8203125-1.0545044-41.1202393    c1.2255859-0.8283691,2.0328979-2.2305908,2.0328979-3.8178101v-4.5415039c0-0.8286133-0.6713867-1.5-1.5-1.5h-16.234375    c-0.8286133,0-1.5,0.6713867-1.5,1.5V28.28125c0,1.5870361,0.8071289,2.9891968,2.0324097,3.8175659    c-0.1828003,4.2993774-1.0193481,24.8334961-1.0540161,41.1204834c-1.4108276,0.760437-2.3826904,2.2341919-2.3826904,3.946228    V84.0625c0,0.8286133,0.6713867,1.5,1.5,1.5h19.0429688c0.8286133,0,1.5-0.6713867,1.5-1.5v-6.8969727    C36.6630859,75.4534912,35.6912231,73.9797363,34.2803955,73.2192993z M30.2562866,32.8862305    c0.2236938,5.3532715,0.9732056,24.3568115,1.0230713,39.7792969H20.0038452    c0.0498657-15.4214478,0.7989502-34.4258423,1.022583-39.7792969H30.2562866z M19.0244141,25.2397461h13.234375V28.28125    c0,0.8847656-0.7202148,1.6049805-1.6054688,1.6049805H20.6293945c-0.8847656,0-1.6049805-0.7202148-1.6049805-1.6049805    V25.2397461z M33.6630859,82.5625H17.6201172v-5.3969727c0-0.6853027,0.4645996-1.2583618,1.0934448-1.4369507    c0.0667725-0.0095825,0.1312866-0.0235596,0.1948853-0.041626c0.0697632-0.0100098,0.1391602-0.0214233,0.2116699-0.0214233    h13.0429688c0.0725098,0,0.1419067,0.0114136,0.2116699,0.0214233c0.0635986,0.0180664,0.1281128,0.0320435,0.1948853,0.041626    c0.6288452,0.1785889,1.0934448,0.7516479,1.0934448,1.4369507V82.5625z"/><path fill="#000000" d="M59.7803955,73.2192993c-0.034668-16.2867432-0.8716431-36.8203125-1.0545044-41.1202393    c1.2255859-0.8283691,2.0328979-2.2305908,2.0328979-3.8178101v-4.5415039c0-0.8286133-0.6713867-1.5-1.5-1.5h-16.234375    c-0.8286133,0-1.5,0.6713867-1.5,1.5V28.28125c0,1.5870361,0.8071289,2.9891968,2.0324097,3.8175659    c-0.1828003,4.2993774-1.0193481,24.8334961-1.0540161,41.1204834c-1.4108276,0.760437-2.3826904,2.2341919-2.3826904,3.946228    V84.0625c0,0.8286133,0.6713867,1.5,1.5,1.5h19.0429688c0.8286133,0,1.5-0.6713867,1.5-1.5v-6.8969727    C62.1630859,75.4534912,61.1912231,73.9797363,59.7803955,73.2192993z M55.7562866,32.8862305    c0.2236938,5.3532715,0.9732056,24.3568115,1.0230713,39.7792969H45.5038452    c0.0498657-15.4214478,0.7989502-34.4258423,1.022583-39.7792969H55.7562866z M44.5244141,25.2397461h13.234375V28.28125    c0,0.8847656-0.7202148,1.6049805-1.6054688,1.6049805H46.1293945c-0.8847656,0-1.6049805-0.7202148-1.6049805-1.6049805    V25.2397461z M59.1630859,82.5625H43.1201172v-5.3969727c0-0.6853027,0.4645996-1.2583618,1.0934448-1.4369507    c0.0667725-0.0095825,0.1312866-0.0235596,0.1948853-0.041626c0.0697632-0.0100098,0.1391602-0.0214233,0.2116699-0.0214233    h13.0429688c0.0725098,0,0.1419067,0.0114136,0.2116699,0.0214233c0.0635986,0.0180664,0.1281128,0.0320435,0.1948853,0.041626    c0.6288452,0.1785889,1.0934448,0.7516479,1.0934448,1.4369507V82.5625z"/><path fill="#000000" d="M85.2803955,73.2192993c-0.034668-16.2867432-0.8716431-36.8203125-1.0545044-41.1202393    c1.2255859-0.8283691,2.0328979-2.2305908,2.0328979-3.8178101v-4.5415039c0-0.8286133-0.6713867-1.5-1.5-1.5h-16.234375    c-0.8286133,0-1.5,0.6713867-1.5,1.5V28.28125c0,1.5870361,0.8071289,2.9891968,2.0324097,3.8175659    c-0.1828003,4.2993774-1.0193481,24.8334961-1.0540161,41.1204834c-1.4108276,0.760437-2.3826904,2.2341919-2.3826904,3.946228    V84.0625c0,0.8286133,0.6713867,1.5,1.5,1.5h19.0429688c0.8286133,0,1.5-0.6713867,1.5-1.5v-6.8969727    C87.6630859,75.4534912,86.6912231,73.9797363,85.2803955,73.2192993z M81.2562866,32.8862305    c0.2236938,5.3532715,0.9732056,24.3568115,1.0230713,39.7792969H71.0038452    c0.0498657-15.4214478,0.7989502-34.4258423,1.022583-39.7792969H81.2562866z M70.0244141,25.2397461h13.234375V28.28125    c0,0.8847656-0.7202148,1.6049805-1.6054688,1.6049805H71.6293945c-0.8847656,0-1.6049805-0.7202148-1.6049805-1.6049805    V25.2397461z M84.6630859,82.5625H68.6201172v-5.3969727c0-0.6853027,0.4645996-1.2583618,1.0934448-1.4369507    c0.0667725-0.0095825,0.1312866-0.0235596,0.1948853-0.041626c0.0697632-0.0100098,0.1391602-0.0214233,0.2116699-0.0214233    h13.0429688c0.0725098,0,0.1419067,0.0114136,0.2116699,0.0214233c0.0635986,0.0180664,0.1281128,0.0320435,0.1948853,0.041626    c0.6288452,0.1785889,1.0934448,0.7516479,1.0934448,1.4369507V82.5625z"/></g></g></svg>