<svg xmlns="http://www.w3.org/2000/svg" xmlns:xlink="http://www.w3.org/1999/xlink" version="1.0" x="0px" y="0px" viewBox="0 0 100 100" enable-background="new 0 0 100 100" xml:space="preserve"><g><path fill="#000000" d="M90.21875,54.9550781L81.75,44.5628662V19.5c0-0.8286133-0.671875-1.5-1.5-1.5H37.5   c-0.828125,0-1.5,0.6713867-1.5,1.5v13.7532959L11.1953125,50.2626953   C10.7880859,50.5424805,10.5439453,51.0053711,10.5439453,51.5s0.2441406,0.9575195,0.6513672,1.2373047L36,69.7467041V83.5   c0,0.8286133,0.671875,1.5,1.5,1.5h42.75c0.828125,0,1.5-0.6713867,1.5-1.5V49.312439l6.1425781,7.538147   c0.296875,0.3637695,0.7285156,0.5522461,1.1640625,0.5522461c0.3330078,0,0.6679688-0.1103516,0.9462891-0.3374023   C90.6455078,56.5424805,90.7421875,55.5976562,90.21875,54.9550781z M37.5,35.862793L60.3037109,51.5L37.5,67.137207   L14.6962891,51.5L37.5,35.862793z M39,82V69.7467041l24.8046875-17.0093994   c0.4072266-0.2797852,0.6513672-0.7426758,0.6513672-1.2373047s-0.2441406-0.9575195-0.6513672-1.2373047L39,33.2532959V21h39.75   v23.5628662l-8.46875,10.3922119c-0.5234375,0.6425781-0.4267578,1.5874023,0.2158203,2.1103516   c0.6416016,0.5239258,1.5869141,0.4272461,2.1103516-0.2148438L78.75,49.312439V82H39z"/></g></svg>