<svg xmlns="http://www.w3.org/2000/svg" xmlns:xlink="http://www.w3.org/1999/xlink" version="1.0" x="0px" y="0px" viewBox="0 0 100 100" enable-background="new 0 0 100 100" xml:space="preserve"><g><g><path d="M81.3730469,14.0859375H18.6269531c-0.828125,0-1.5,0.6713867-1.5,1.5v68.828125    c0,0.8286133,0.671875,1.5,1.5,1.5h62.7460938c0.828125,0,1.5-0.6713867,1.5-1.5v-68.828125    C82.8730469,14.7573242,82.2011719,14.0859375,81.3730469,14.0859375z M79.8730469,82.9140625H20.1269531v-65.828125h59.7460938    V82.9140625z"/><rect x="28.25" y="24.5" width="28.375" height="3"/><rect x="62.8408203" y="24.5" width="10.5341797" height="3"/><rect x="62.8408203" y="30.5" width="10.5341797" height="3"/><path d="M29.25,56.6665039h20.6669922c0.828125,0,1.5-0.6713867,1.5-1.5V34.5c0-0.8286133-0.671875-1.5-1.5-1.5    H29.25c-0.828125,0-1.5,0.6713867-1.5,1.5v20.6665039C27.75,55.9951172,28.421875,56.6665039,29.25,56.6665039z M30.75,36    h17.6669922v17.6665039H30.75V36z"/><path d="M29.25,75.9106445h10.3330078c0.828125,0,1.5-0.6713867,1.5-1.5V62.1665039    c0-0.8286133-0.671875-1.5-1.5-1.5H29.25c-0.828125,0-1.5,0.6713867-1.5,1.5v12.2441406    C27.75,75.2392578,28.421875,75.9106445,29.25,75.9106445z M30.75,63.6665039h7.3330078v9.2441406H30.75V63.6665039z"/><path d="M55.9091797,40.2011719v14.965332c0,0.8286133,0.671875,1.5,1.5,1.5H72.375    c0.828125,0,1.5-0.6713867,1.5-1.5v-14.965332c0-0.8286133-0.671875-1.5-1.5-1.5H57.4091797    C56.5810547,38.7011719,55.9091797,39.3725586,55.9091797,40.2011719z M58.9091797,41.7011719H70.875v11.965332H58.9091797    V41.7011719z"/><path d="M72.375,60.6665039H46.25c-0.828125,0-1.5,0.6713867-1.5,1.5v12.2441406    c0,0.8286133,0.671875,1.5,1.5,1.5h26.125c0.828125,0,1.5-0.6713867,1.5-1.5V62.1665039    C73.875,61.3378906,73.203125,60.6665039,72.375,60.6665039z M70.875,72.9106445H47.75v-9.2441406h23.125V72.9106445z"/></g></g></svg>