<svg xmlns="http://www.w3.org/2000/svg" xmlns:xlink="http://www.w3.org/1999/xlink" version="1.0" x="0px" y="0px" viewBox="0 0 100 100" enable-background="new 0 0 100 100" xml:space="preserve"><g><g><path d="M79.875,10.875h-57.75c-0.8286133,0-1.5,0.6713867-1.5,1.5v76.25c0,0.8286133,0.6713867,1.5,1.5,1.5    h57.75c0.8286133,0,1.5-0.6713867,1.5-1.5v-76.25C81.375,11.5463867,80.7036133,10.875,79.875,10.875z M78.375,87.125h-54.75    v-73.25h54.75V87.125z"/><path d="M47.1665039,19.9848633h-17v17h17V19.9848633z M44.1665039,33.9848633h-11v-11h11V33.9848633z"/><rect x="52.6665039" y="19.9848633" width="19" height="3"/><rect x="52.6665039" y="26.9848633" width="19" height="3"/><rect x="52.6665039" y="33.9848633" width="16" height="3"/><path d="M47.1665039,42.3334961h-17v17h17V42.3334961z M44.1665039,56.3334961h-11v-11h11V56.3334961z"/><rect x="52.6665039" y="41.9848633" width="19" height="3"/><rect x="52.6665039" y="49.1591797" width="19" height="3"/><rect x="52.6665039" y="56.3334961" width="11" height="3"/><path d="M47.1665039,64.6816406h-17v17h17V64.6816406z M44.1665039,78.6816406h-11v-11h11V78.6816406z"/><rect x="52.6665039" y="65.6816406" width="19" height="3"/><rect x="52.6665039" y="72.1816406" width="19" height="3"/><rect x="52.6665039" y="78.6816406" width="14" height="3"/></g></g></svg>