<svg xmlns="http://www.w3.org/2000/svg" xmlns:xlink="http://www.w3.org/1999/xlink" version="1.0" x="0px" y="0px" viewBox="0 0 100 100" enable-background="new 0 0 100 100" xml:space="preserve"><g><g><path d="M33.8812637,45.1030807H44.262825c0.6633606,0,1.2000008-0.5372391,1.2000008-1.2000008    c0-0.6626396-0.5366402-1.2000008-1.2000008-1.2000008H33.8812637c-0.6633568,0-1.1999969,0.5373611-1.1999969,1.2000008    C32.6812668,44.5658417,33.217907,45.1030807,33.8812637,45.1030807z"/><path d="M58.9699059,49.9534798H33.8812637c-0.6633568,0-1.1999969,0.5373611-1.1999969,1.2000008    c0,0.6627579,0.5366402,1.2000008,1.1999969,1.2000008h25.0886421c0.6632385,0,1.1999969-0.5372429,1.1999969-1.2000008    C60.1699028,50.4908409,59.6331444,49.9534798,58.9699059,49.9534798z"/><path d="M58.9699059,57.2038803H33.8812637c-0.6633568,0-1.1999969,0.5373611-1.1999969,1.2000008    c0,0.6627579,0.5366402,1.2000008,1.1999969,1.2000008h25.0886421c0.6632385,0,1.1999969-0.5372429,1.1999969-1.2000008    C60.1699028,57.7412415,59.6331444,57.2038803,58.9699059,57.2038803z"/><path d="M58.9699059,64.454277H33.8812637c-0.6633568,0-1.1999969,0.5373611-1.1999969,1.2000046    c0,0.6627579,0.5366402,1.1999969,1.1999969,1.1999969h25.0886421c0.6632385,0,1.1999969-0.5372391,1.1999969-1.1999969    C60.1699028,64.9916382,59.6331444,64.454277,58.9699059,64.454277z"/><path d="M58.9699059,71.7046814H33.8812637c-0.6633568,0-1.1999969,0.5373611-1.1999969,1.1999969    c0,0.6627579,0.5366402,1.2000046,1.1999969,1.2000046h25.0886421c0.6632385,0,1.1999969-0.5372467,1.1999969-1.2000046    C60.1699028,72.2420425,59.6331444,71.7046814,58.9699059,71.7046814z"/><path d="M63.9000015,15.3000002c-5.3491364,0-10.075695,2.7083998-12.8871765,6.8238001H31.8914261    c-0.6633606,0-1.2000008,0.5373592-1.2000008,1.1999989v5.0068817c0,0.065279,0.0271206,0.1215591,0.0370808,0.18396h-4.0285053    C26.0367451,28.5146408,25.5,29.052,25.5,29.7146397V82.5c0,0.6626434,0.5367451,1.1999969,1.2000008,1.1999969h39.4511986    c0.6632233,0,1.1999969-0.5373535,1.1999969-1.1999969v-3.9908371h5.1902313c0.6632385,0,1.1999969-0.5372467,1.1999969-1.2000046    V42.9900017C77.2517853,40.1271591,79.5,35.7725983,79.5,30.8999996C79.5,22.2978001,72.5016022,15.3000002,63.9000015,15.3000002    z M71.341423,41.7929993c-1.2016754,0.8234406-2.5490265,1.4422798-3.9902267,1.8335991    c-0.7750931,0.2104797-1.5757294,0.3547211-2.3999939,0.4201202c-0.3479004,0.0276031-0.6963806,0.0532799-1.0512009,0.0532799    c-7.2735786,0-13.1912575-5.9135971-13.199295-13.185358c0-0.004921-0.0007057-0.0095997-0.0007057-0.0146408    c0-0.8155193,0.0848236-1.6103992,0.2270241-2.3853588c0.2610016-1.422121,0.7442398-2.7662411,1.4228401-3.9908409    c0.4803581-0.8665199,1.0622406-1.6663208,1.7176781-2.3999996c2.4190826-2.707201,5.924881-4.4237995,9.8324585-4.4237995    c7.2784653,0,13.1999969,5.9215183,13.1999969,13.1999989c0,3.3661213-1.2771759,6.4320011-3.3585739,8.7662411    C73.0282669,40.4659195,72.2277451,41.1856804,71.341423,41.7929993z M33.0914268,28.3306808v-3.806881h16.5859184    c-0.5635185,1.2518406-0.9590416,2.5909195-1.1753998,3.9908409H33.0542259    C33.0643044,28.45224,33.0914268,28.3959599,33.0914268,28.3306808z M64.9512024,81.3000031H27.8999996V30.9146404H48.300705    C48.3087463,39.5099983,55.3034248,46.5,63.9000015,46.5c0.3548203,0,0.7021027-0.0297585,1.0512009-0.0532799V81.3000031z     M71.341423,76.1091614h-3.9902267V46.1023216c1.4101105-0.3201599,2.7528-0.8205605,3.9902267-1.4950829V76.1091614z"/><path d="M65.509201,22.1238003c-0.3899002-0.0942001-0.7911758-0.1575603-1.2096024-0.1575603    c-0.4182129,0-0.8194923,0.0633602-1.2091331,0.1575603c-1.3750801,0.3322792-2.5257607,1.2133198-3.2276421,2.3999996    c-0.4555206,0.7699203-0.7347603,1.6563606-0.7347603,2.6138401c0,0.6627598,0.5367622,1.2000008,1.2000008,1.2000008    c0.6633606,0,1.2000008-0.537241,1.2000008-1.2000008c0-1.2175198,0.7945213-2.2426796,1.8883362-2.6138401    c0.2789841-0.0946808,0.5726242-0.1575603,0.8831978-0.1575603c0.3107986,0,0.6046677,0.0628796,0.8837891,0.1575603    c1.0943985,0.3711605,1.888916,1.3963203,1.888916,2.6138401c0,0.5372391-0.1682358,1.0399208-0.4489212,1.4746799    c-0.2243958,0.347641-0.5161209,0.6548405-0.8858414,0.8791199c-0.6293945,0.3730793-1.1536789,0.8607597-1.5637131,1.4232006    c-0.6283226,0.8621998-0.9816055,1.9046383-0.9816055,3.01404c0,0.6627579,0.5366402,1.2000008,1.2000046,1.2000008    c0.2055588,0,0.3897705-0.0650406,0.5589752-0.1561203c0.3761826-0.2025604,0.6410217-0.5865593,0.6410217-1.0438805    c0-0.9772797,0.5120392-1.8644409,1.3803635-2.3788795c0.1330795-0.080761,0.2548752-0.1731606,0.3786087-0.2637615    c1.3323517-0.9747601,2.121109-2.4899998,2.121109-4.1483994c0-0.9574795-0.2792435-1.8439198-0.7347641-2.6138401    C68.0355453,23.3371201,66.8846207,22.4560795,65.509201,22.1238003z"/><path d="M64.9512024,37.6391983c-0.2182999-0.1240768-0.4573364-0.2139587-0.7262573-0.2139587    c-0.8282394,0-1.4997444,0.6715202-1.4997444,1.4997597s0.671505,1.4997597,1.4997444,1.4997597    c0.2689209,0,0.5079575-0.0900002,0.7262573-0.2139587c0.4539413-0.2578812,0.7734985-0.7264786,0.7734985-1.2858009    C65.7247009,38.3656807,65.4051437,37.8969612,64.9512024,37.6391983z"/></g></g></svg>