<svg xmlns="http://www.w3.org/2000/svg" xmlns:xlink="http://www.w3.org/1999/xlink" version="1.0" x="0px" y="0px" viewBox="0 0 100 100" enable-background="new 0 0 100 100" xml:space="preserve">
  <g>
    <g>
      <path d="M87.4130859,32.6953125c-0.3706055-0.2836914-0.8520508-0.3818359-1.3012695-0.2587891L64.75,38.1602173    V29.75C64.75,21.6166992,58.1333008,15,50,15s-14.75,6.6166992-14.75,14.75v8.4102173l-21.3618164-5.7236938    c-0.4501953-0.1220703-0.9311523-0.0249023-1.3012695,0.2587891S12,33.4189453,12,33.8852539V76.737793    c0,0.6787109,0.4560547,1.2729492,1.1118164,1.4487305l36.5,9.7802734    c0.1298828,0.0351562,0.2607422,0.0517578,0.3891602,0.0517578c0.0063477,0,0.012085-0.0029907,0.0184326-0.0030518    c0.1235352-0.0015869,0.2472534-0.0157471,0.3687744-0.0487061l36.5-9.7802734C87.5439453,78.0107422,88,77.4165039,88,76.737793    V33.8852539C88,33.4189453,87.7832031,32.9790039,87.4130859,32.6953125z M38.25,29.75C38.25,23.2709961,43.5209961,18,50,18    s11.75,5.2709961,11.75,11.75v9.2139893L50,42.1123047l-11.75-3.1483154V29.75z M15,35.8398438l20.25,5.4257812l3,0.803833    l10.25,2.7463989v39.7475586L15,75.5869141V35.8398438z M85,75.5869141l-33.5,8.9760742V44.815918l10.25-2.7463989l3-0.803833    L85,35.8398438V75.5869141z"/>
      <path d="M41.7216797,51.4526367l-19.5-5.2250977c-0.7988281-0.2143555-1.6230469,0.2602539-1.8369141,1.0605469    c-0.2143555,0.800293,0.2602539,1.6225586,1.0605469,1.8369141l19.5,5.2250977    c0.1298828,0.0351562,0.2607422,0.0517578,0.3891602,0.0517578c0.6621094,0,1.2685547-0.4418945,1.4477539-1.1123047    C42.996582,52.4892578,42.5219727,51.6669922,41.7216797,51.4526367z"/>
      <path d="M41.7216797,61.2856445l-19.5-5.2250977c-0.7988281-0.215332-1.6230469,0.2607422-1.8369141,1.0605469    c-0.2143555,0.800293,0.2602539,1.6225586,1.0605469,1.8369141l19.5,5.2250977    c0.1298828,0.0351562,0.2607422,0.0517578,0.3891602,0.0517578c0.6621094,0,1.2685547-0.4418945,1.4477539-1.1123047    C42.996582,62.3222656,42.5219727,61.5,41.7216797,61.2856445z"/>
      <path d="M41.7216797,71.1191406l-19.5-5.2250977c-0.7988281-0.2167969-1.6230469,0.2602539-1.8369141,1.0605469    c-0.2143555,0.800293,0.2602539,1.6225586,1.0605469,1.8369141l19.5,5.2250977    c0.1298828,0.0351562,0.2607422,0.0517578,0.3891602,0.0517578c0.6621094,0,1.2685547-0.4418945,1.4477539-1.1123047    C42.996582,72.1557617,42.5219727,71.3334961,41.7216797,71.1191406z"/>
      <path d="M57.9331055,53.0976562c0.1791992,0.6704102,0.7856445,1.1123047,1.4477539,1.1123047    c0.128418,0,0.2592773-0.0166016,0.3891602-0.0517578l19.5-5.2250977c0.800293-0.2143555,1.2749023-1.0366211,1.0605469-1.8369141    c-0.2138672-0.800293-1.0366211-1.2753906-1.8369141-1.0605469l-19.5,5.2250977    C58.1933594,51.4750977,57.71875,52.2973633,57.9331055,53.0976562z"/>
      <path d="M78.4936523,55.8691406l-19.5,5.2250977c-0.800293,0.2143555-1.2749023,1.0366211-1.0605469,1.8369141    c0.1791992,0.6704102,0.7856445,1.1123047,1.4477539,1.1123047c0.128418,0,0.2592773-0.0166016,0.3891602-0.0517578    l19.5-5.2250977c0.800293-0.2143555,1.2749023-1.0366211,1.0605469-1.8369141    C80.1166992,56.1293945,79.2939453,55.652832,78.4936523,55.8691406z"/>
      <path d="M73.4936523,67.0419922l-14.5,3.8852539c-0.800293,0.2143555-1.2749023,1.0366211-1.0605469,1.8369141    c0.1791992,0.6704102,0.7856445,1.1123047,1.4477539,1.1123047c0.128418,0,0.2592773-0.0166016,0.3891602-0.0517578    l14.5-3.8852539c0.800293-0.2143555,1.2749023-1.0366211,1.0605469-1.8369141    C75.1171875,67.3022461,74.2949219,66.8251953,73.4936523,67.0419922z"/>
      <circle cx="45.0323486" cy="30.5101318" r="2"/>
      <circle cx="52.4073486" cy="30.5101318" r="2"/>
      <path d="M52.6865234,36.6024246c-0.144043-0.815918-0.9257812-1.3598633-1.737793-1.2163086    c-2.2246094,0.3920898-4.5961914-0.2016602-4.6201172-0.2080078c-0.8017578-0.2041016-1.6181641,0.2753906-1.8261719,1.0761719    c-0.2080078,0.8017578,0.2734375,1.6201172,1.0756836,1.8286133c0.090332,0.0234375,1.7133789,0.4365234,3.7260742,0.4365234    c0.6914062,0,1.4291992-0.0488281,2.1660156-0.1791992C52.2861328,38.1961746,52.8305664,37.4183426,52.6865234,36.6024246z"/>
    </g>
  </g>
</svg>
