<svg xmlns="http://www.w3.org/2000/svg" xmlns:xlink="http://www.w3.org/1999/xlink" version="1.0" x="0px" y="0px" viewBox="0 0 100 100" enable-background="new 0 0 100 100" xml:space="preserve"><g><g><path d="M50,36.4106445c12.0336914,0,19.1230469-11.6206055,19.4189453-12.1152344    c0.2836914-0.4741211,0.2836914-1.065918,0-1.5400391C69.1230469,22.2607422,62.0336914,10.6391602,50,10.6391602    s-19.1230469,11.621582-19.4189453,12.1162109c-0.2836914,0.4741211-0.2836914,1.065918,0,1.5400391    C30.8769531,24.7900391,37.9663086,36.4106445,50,36.4106445z M50,13.6391602    c8.6582031,0,14.605957,7.4360352,16.3305664,9.8862305C64.605957,25.9755859,58.6582031,33.4106445,50,33.4106445    s-14.605957-7.4350586-16.3305664-9.8852539C35.394043,21.0751953,41.3417969,13.6391602,50,13.6391602z"/><path d="M25.7841797,30.6533203c0.2719727,0.206543,0.5913086,0.3066406,0.9082031,0.3066406    c0.4521484,0,0.8989258-0.2036133,1.1943359-0.5908203l0.9086914-1.1928711    c0.5019531-0.6591797,0.3745117-1.6005859-0.2841797-2.1025391c-0.6606445-0.5014648-1.6005859-0.375-2.1025391,0.2841797    L25.5,28.5507812C24.9980469,29.2099609,25.1254883,30.1513672,25.7841797,30.6533203z"/><path d="M16.5449219,42.7792969c0.2714844,0.206543,0.5913086,0.3066406,0.9082031,0.3066406    c0.4521484,0,0.8989258-0.2036133,1.1943359-0.5908203l1.574707-2.0668945    c0.5019531-0.6591797,0.3745117-1.6000977-0.2841797-2.1025391c-0.6591797-0.5019531-1.6005859-0.3754883-2.1025391,0.2841797    l-1.574707,2.0668945C15.7587891,41.3359375,15.8862305,42.2768555,16.5449219,42.7792969z"/><path d="M21.1645508,36.7163086c0.2714844,0.206543,0.5913086,0.3066406,0.9082031,0.3066406    c0.4521484,0,0.8989258-0.2036133,1.1943359-0.5908203l1.574707-2.0668945    c0.5019531-0.6591797,0.3745117-1.6000977-0.2841797-2.1025391c-0.659668-0.5014648-1.6000977-0.375-2.1025391,0.2841797    l-1.574707,2.0668945C20.378418,35.2729492,20.5058594,36.2138672,21.1645508,36.7163086z"/><path d="M72.1132812,30.3691406c0.2954102,0.387207,0.7421875,0.5908203,1.1943359,0.5908203    c0.3168945,0,0.6367188-0.1000977,0.9082031-0.3066406c0.6586914-0.5019531,0.7861328-1.4433594,0.2841797-2.1025391    l-0.9086914-1.1928711c-0.5024414-0.6591797-1.4433594-0.784668-2.1025391-0.2841797    c-0.6586914,0.5019531-0.7861328,1.4433594-0.2841797,2.1025391L72.1132812,30.3691406z"/><path d="M76.7329102,36.4321289c0.2954102,0.387207,0.7421875,0.5908203,1.1943359,0.5908203    c0.3168945,0,0.6367188-0.1000977,0.9082031-0.3066406c0.6586914-0.5024414,0.7861328-1.4433594,0.2841797-2.1025391    l-1.574707-2.0668945c-0.5019531-0.6591797-1.4443359-0.784668-2.1025391-0.2841797    c-0.6586914,0.5024414-0.7861328,1.4433594-0.2841797,2.1025391L76.7329102,36.4321289z"/><path d="M81.3525391,42.4951172c0.2954102,0.387207,0.7421875,0.5908203,1.1943359,0.5908203    c0.3168945,0,0.6367188-0.1000977,0.9082031-0.3066406c0.6586914-0.5024414,0.7861328-1.4433594,0.2841797-2.1025391    l-1.574707-2.0668945c-0.5024414-0.6586914-1.4433594-0.7856445-2.1025391-0.2841797    c-0.6586914,0.5024414-0.7861328,1.4433594-0.2841797,2.1025391L81.3525391,42.4951172z"/><path d="M50,30.5249023c3.8598633,0,7-3.1401367,7-7s-3.1401367-7-7-7s-7,3.1401367-7,7    S46.1401367,30.5249023,50,30.5249023z M50,19.5249023c2.2055664,0,4,1.7944336,4,4s-1.7944336,4-4,4s-4-1.7944336-4-4    S47.7944336,19.5249023,50,19.5249023z"/><path d="M86.5,45.2753906h-73c-0.8286133,0-1.5,0.6713867-1.5,1.5v38.8525391c0,0.8286133,0.6713867,1.5,1.5,1.5    h73c0.8286133,0,1.5-0.6713867,1.5-1.5V46.7753906C88,45.9467773,87.3286133,45.2753906,86.5,45.2753906z M15,48.2753906h33.5    v35.8525391H15V48.2753906z M85,84.1279297H51.5V48.2753906H85V84.1279297z"/><path d="M21.8334961,57.8334961h19.5c0.8286133,0,1.5-0.6713867,1.5-1.5s-0.6713867-1.5-1.5-1.5h-19.5    c-0.8286133,0-1.5,0.6713867-1.5,1.5S21.0048828,57.8334961,21.8334961,57.8334961z"/><path d="M41.3334961,63.6665039h-19.5c-0.8286133,0-1.5,0.6713867-1.5,1.5s0.6713867,1.5,1.5,1.5h19.5    c0.8286133,0,1.5-0.6713867,1.5-1.5S42.1621094,63.6665039,41.3334961,63.6665039z"/><path d="M41.3334961,72.5h-19.5c-0.8286133,0-1.5,0.6713867-1.5,1.5s0.6713867,1.5,1.5,1.5h19.5    c0.8286133,0,1.5-0.6713867,1.5-1.5S42.1621094,72.5,41.3334961,72.5z"/><path d="M59.3818359,57.8334961h19.5c0.8286133,0,1.5-0.6713867,1.5-1.5s-0.6713867-1.5-1.5-1.5h-19.5    c-0.8286133,0-1.5,0.6713867-1.5,1.5S58.5532227,57.8334961,59.3818359,57.8334961z"/><path d="M59.3818359,66.6665039h19.5c0.8286133,0,1.5-0.6713867,1.5-1.5s-0.6713867-1.5-1.5-1.5h-19.5    c-0.8286133,0-1.5,0.6713867-1.5,1.5S58.5532227,66.6665039,59.3818359,66.6665039z"/><path d="M73.8818359,72.5h-14.5c-0.8286133,0-1.5,0.6713867-1.5,1.5s0.6713867,1.5,1.5,1.5h14.5    c0.8286133,0,1.5-0.6713867,1.5-1.5S74.7104492,72.5,73.8818359,72.5z"/></g></g></svg>