<svg xmlns="http://www.w3.org/2000/svg" xmlns:xlink="http://www.w3.org/1999/xlink" version="1.0" x="0px" y="0px" viewBox="0 0 100 100" enable-background="new 0 0 100 100" xml:space="preserve"><g><g><path d="M33.8800621,45.1030807h10.3827591c0.6633606,0,1.2000008-0.5372391,1.2000008-1.2000008    c0-0.6626396-0.5366402-1.2000008-1.2000008-1.2000008H33.8800621c-0.6632423,0-1.2000008,0.5373611-1.2000008,1.2000008    C32.6800613,44.5658417,33.2168198,45.1030807,33.8800621,45.1030807z"/><path d="M58.9698982,49.9534798H33.8800621c-0.6632423,0-1.2000008,0.5373611-1.2000008,1.2000008    c0,0.6627579,0.5367584,1.2000008,1.2000008,1.2000008h25.0898361c0.6632423,0,1.2000008-0.5372429,1.2000008-1.2000008    C60.169899,50.4908409,59.6331406,49.9534798,58.9698982,49.9534798z"/><path d="M58.9698982,57.2038803H33.8800621c-0.6632423,0-1.2000008,0.5373611-1.2000008,1.2000008    c0,0.6627579,0.5367584,1.2000008,1.2000008,1.2000008h25.0898361c0.6632423,0,1.2000008-0.5372429,1.2000008-1.2000008    C60.169899,57.7412415,59.6331406,57.2038803,58.9698982,57.2038803z"/><path d="M58.9698982,64.454277H33.8800621c-0.6632423,0-1.2000008,0.5373611-1.2000008,1.2000046    c0,0.6627579,0.5367584,1.1999969,1.2000008,1.1999969h25.0898361c0.6632423,0,1.2000008-0.5372391,1.2000008-1.1999969    C60.169899,64.9916382,59.6331406,64.454277,58.9698982,64.454277z"/><path d="M58.9698982,71.7046814H33.8800621c-0.6632423,0-1.2000008,0.5373611-1.2000008,1.1999969    c0,0.6627579,0.5367584,1.2000046,1.2000008,1.2000046h25.0898361c0.6632423,0,1.2000008-0.5372467,1.2000008-1.2000046    C60.169899,72.2420425,59.6331406,71.7046814,58.9698982,71.7046814z"/><path d="M63.9000015,15.3000002c-5.3491402,0-10.0757027,2.7083998-12.8871803,6.8238001H31.8914204    c-0.6633587,0-1.1999989,0.5373592-1.1999989,1.1999989v5.0068817c0,0.065279,0.0271187,0.1215591,0.0370789,0.18396h-4.0284996    C26.0367413,28.5146408,25.5,29.052,25.5,29.7146397V82.5c0,0.6626434,0.5367413,1.1999969,1.2000008,1.1999969h39.4511986    c0.6632233,0,1.1999969-0.5373535,1.1999969-1.1999969v-3.9908371H72.54142c0.6632385,0,1.1999969-0.5372467,1.1999969-1.2000046    V42.9900017C77.2517776,40.1271591,79.5,35.7725983,79.5,30.8999996C79.5,22.2978001,72.5016022,15.3000002,63.9000015,15.3000002    z M71.341423,41.7929993c-1.201683,0.8234406-2.5490265,1.4422798-3.9902267,1.8335991    c-0.7750931,0.2104797-1.575737,0.3547211-2.3999939,0.4201202c-0.3479004,0.0276031-0.6963806,0.0532799-1.0512009,0.0532799    c-7.2735825,0-13.1912613-5.9135971-13.1993027-13.185358c0-0.004921-0.0006981-0.0095997-0.0006981-0.0146408    c0-0.8155193,0.0848198-1.6103992,0.2270203-2.3853588c0.2609978-1.422121,0.7442398-2.7662411,1.4228401-3.9908409    c0.4803581-0.8665199,1.0622406-1.6663208,1.7176781-2.3999996c2.4190826-2.707201,5.924881-4.4237995,9.8324623-4.4237995    c7.2784576,0,13.1999969,5.9215183,13.1999969,13.1999989c0,3.3661213-1.2771759,6.4320011-3.3585815,8.7662411    C73.0282593,40.4659195,72.2277374,41.1856804,71.341423,41.7929993z M33.0914192,28.3306808v-3.806881h16.5859222    c-0.5635223,1.2518406-0.9590416,2.5909195-1.1753998,3.9908409H33.0542221    C33.0643005,28.45224,33.0914192,28.3959599,33.0914192,28.3306808z M64.9512024,81.3000031H27.8999996V30.9146404h20.4007015    C48.3087387,39.5099983,55.303421,46.5,63.9000015,46.5c0.3548203,0,0.702095-0.0297585,1.0512009-0.0532799V81.3000031z     M71.341423,76.1091614h-3.9902267V46.1023216c1.4101028-0.3201599,2.7528-0.8205605,3.9902267-1.4950829V76.1091614z"/><path d="M75.653862,29.65728c0.3843613-0.5402393,0.2589569-1.2891598-0.2812805-1.6735191    c-0.5237808-0.3744011-1.2375641-0.257761-1.6311646,0.2416782c-0.0123596,0.0156002-0.0305939,0.0231609-0.0422134,0.0396004    l-1.242981,1.7456398c-0.1197662-1.2560387-0.5136032-2.4310799-1.1147995-3.4731598    c-0.4328461-0.7501202-0.9751205-1.4270401-1.6048813-2.0137196c-1.5434418-1.4375992-3.6060028-2.3250008-5.8764-2.3250008    c-2.270401,0-4.3327217,0.8874016-5.8758011,2.3250008c-1.1467209,1.0682392-2.0011215,2.4404392-2.4349213,3.9908409    c-0.2070007,0.7399197-0.3260384,1.5163193-0.3260384,2.3215199c0,0.0265198,0.0037193,0.0520802,0.0039597,0.0784798    c0.0428391,4.7260799,3.896759,8.5587597,8.6328011,8.5587597c0.3675575,0,0.7305565-0.0339584,1.0910606-0.0794411    c0.8319397-0.1048775,1.6374969-0.3297577,2.3999939-0.6676788c0.4435043-0.1964417,0.8760071-0.420002,1.2843399-0.6919212    c0.552002-0.3668404,0.7020035-1.1120377,0.3351669-1.6634407c-0.3609619-0.538559-1.0746002-0.6849594-1.6195068-0.3527985    c-0.0141754,0.0086403-0.0306168,0.0088806-0.0445328,0.0182419c-0.7144852,0.4754372-1.5162048,0.7835999-2.3554611,0.9315567    c-0.3584595,0.0632401-0.7214661,0.1054802-1.0910606,0.1054802c-3.4125404,0-6.1855202-2.756279-6.2288399-6.1587582    c-0.0003624-0.0267601-0.0079231-0.0515995-0.0079231-0.0784798c0-0.82164,0.1686211-1.6026001,0.4585228-2.3215199    c0.9235191-2.2909203,3.1604385-3.9158401,5.7782402-3.9158401c3.4394569,0,6.2378578,2.7979202,6.2378578,6.23736    c0,0.0759602,0.0297394,0.1419601,0.0431976,0.2139587l-2.3365402-1.4954395    c-0.1627197-0.1046391-0.3406601-0.1523991-0.5203171-0.1714802c-0.4375229-0.04632-0.8841629,0.13908-1.1367416,0.5353203    c-0.3573761,0.5584793-0.1945419,1.3001995,0.3633423,1.6576805l0.8402557,0.5378399l3.5402222,2.2658386    c0.1411209,0.0900002,0.2946014,0.1358414,0.4500046,0.1616402c0.0652771,0.0109215,0.1300735,0.0275993,0.1957169,0.0275993    c0.3760834,0,0.7453232-0.1763992,0.9784775-0.5038795l1.2257996-1.7217598L75.653862,29.65728z"/></g></g></svg>