<svg xmlns="http://www.w3.org/2000/svg" xmlns:xlink="http://www.w3.org/1999/xlink" version="1.0" x="0px" y="0px" viewBox="0 0 100 100" enable-background="new 0 0 100 100" xml:space="preserve"><g><path fill="#000000" d="M84.7958984,64.5507812L74.3847656,54.3076172   c-0.2802734-0.2758789-0.6582031-0.4306641-1.0517578-0.4306641H58.8789062v-6.5112305h18.4541016   c0.828125,0,1.5-0.6713867,1.5-1.5V25.3793945c0-0.8286133-0.671875-1.5-1.5-1.5H58.8789062V15.59375   c0-0.8286133-0.671875-1.5-1.5-1.5H42.6210938c-0.828125,0-1.5,0.6713867-1.5,1.5v8.2856445H26.6669922   c-0.3935547,0-0.7714844,0.1547852-1.0517578,0.4306641L15.2041016,34.5532227   c-0.2871094,0.2822266-0.4482422,0.6674805-0.4482422,1.0693359s0.1611328,0.7871094,0.4482422,1.0693359l10.4111328,10.2431641   c0.2802734,0.2758789,0.6582031,0.4306641,1.0517578,0.4306641h14.4541016v6.5112305H22.6669922c-0.828125,0-1.5,0.6713867-1.5,1.5   v20.4863281c0,0.8286133,0.671875,1.5,1.5,1.5h18.4541016v10.3041992c0,0.8286133,0.671875,1.5,1.5,1.5s1.5-0.6713867,1.5-1.5   V77.3632812h11.7578125v10.3041992c0,0.8286133,0.671875,1.5,1.5,1.5s1.5-0.6713867,1.5-1.5V77.3632812h14.4541016   c0.3935547,0,0.7714844-0.1547852,1.0517578-0.4306641l10.4111328-10.2431641   c0.2871094-0.2822266,0.4482422-0.6674805,0.4482422-1.0693359S85.0830078,64.8330078,84.7958984,64.5507812z M44.1210938,17.09375   h11.7578125v6.7856445H44.1210938V17.09375z M27.28125,44.3657227l-8.8867188-8.7431641l8.8867188-8.7431641h13.8398438h3   h11.7578125h3h16.9541016v17.4863281H58.8789062h-3H44.1210938h-3H27.28125z M55.8789062,47.3657227v6.5112305H44.1210938   v-6.5112305H55.8789062z M72.71875,74.3632812H58.8789062h-3H44.1210938h-3H24.1669922V56.8769531h16.9541016h3h11.7578125h3   H72.71875l8.8867188,8.7431641L72.71875,74.3632812z"/></g></svg>