<svg xmlns="http://www.w3.org/2000/svg" xmlns:xlink="http://www.w3.org/1999/xlink" version="1.0" x="0px" y="0px" viewBox="0 0 100 100" enable-background="new 0 0 100 100" xml:space="preserve"><g><g><path fill="#000000" d="M56.4472656,16.3828125c-15.9907227,0-29.0004883,13.0073242-29.0004883,28.9951172    c0,5.2445068,1.4066162,10.1638184,3.8517456,14.413147L15.0610352,76.0283203    c-1.2148438,1.2148438-1.815918,2.8857422-1.6918945,4.7055664c0.1186523,1.7436523,0.8955078,3.4150391,2.1879883,4.706543    l0.8520508,0.8520508c1.2919922,1.2924805,2.9638672,2.0693359,4.7070312,2.1875    c0.1567383,0.0107422,0.3115234,0.0161133,0.4658203,0.0161133c1.6381836,0,3.1298828-0.597168,4.2397461-1.7075195    L42.065918,70.5444336c4.2421265,2.4335938,9.1499634,3.8330078,14.3813477,3.8330078    c15.9902267,0,28.9995117-13.0092773,28.9995117-28.9995117C85.4467773,29.3901367,72.4374924,16.3828125,56.4472656,16.3828125z     M23.7006836,84.6674805c-1.2670898,1.265625-3.6337891,1.0390625-5.1704102-0.4960938l-0.8525391-0.8525391    c-0.7788086-0.7788086-1.2460938-1.769043-1.3154297-2.7880859c-0.0644531-0.9428711,0.2270508-1.7880859,0.8198242-2.3813477    L32.9656982,62.366333c1.8150635,2.501709,4.0183716,4.7017212,6.5224609,6.5136719L23.7006836,84.6674805z     M56.4472656,71.3774414c-4.3979492,0-8.5419922-1.1015015-12.1773071-3.0370483    c-0.9112549-0.4851685-1.7891235-1.0238037-2.632019-1.6101685c-2.5408936-1.7675781-4.7513428-3.9755249-6.5224609-6.5136719    c-0.5874023-0.8417969-1.1279297-1.7179565-1.6142578-2.6281128c-1.9467163-3.6431885-3.0544434-7.7993164-3.0544434-12.2105103    c0-14.3339844,11.6635742-25.9951172,26.0004883-25.9951172c14.3359375,0,25.9995117,11.6611328,25.9995117,25.9951172    C82.4467773,59.7138672,70.7832031,71.3774414,56.4472656,71.3774414z"/><path fill="#000000" d="M74.612793,51.3027344c-0.0126953-0.0273438-0.0258789-0.0541992-0.0400391-0.0810547    l-0.1499023-0.2807617c-0.0517578-0.0966797-0.1132812-0.1855469-0.1831055-0.2666016L61.7695312,30.6347656    c-0.0395508-0.0717773-0.0849609-0.1469727-0.1469727-0.2485352c-0.074707-0.1230469-0.1518555-0.2426758-0.234375-0.3588867    c-1.1386719-1.6049805-2.9892578-2.5629883-4.9501953-2.5629883c-1.9545898,0-3.8017578,0.9536133-4.9399414,2.5493164    c-0.0869141,0.121582-0.1674805,0.2460938-0.2583008,0.3955078c-0.0473633,0.078125-0.0942383,0.15625-0.1381836,0.2363281    L38.5756836,50.7729492c-0.0380859,0.0532227-0.0732422,0.109375-0.1044922,0.1679688L38.28125,51.3027344    c-0.2984619,0.6505737-0.47229,1.3400879-0.5299072,2.0355835c-0.0993042,1.1985474,0.156311,2.4140015,0.7599487,3.4825439    c0.0093384,0.0165405,0.0158081,0.0342407,0.0253296,0.0507202c0.9775391,1.6928711,2.7270508,2.815918,4.7724609,3.0097656    l0.3686523,0.0117188l4.7976685-0.0003052l4.2423706-0.0001831l16.5473633-0.0009766l0.4125977-0.0161133    c1.9526367-0.1879883,3.7021484-1.3110352,4.6796875-3.0039062C75.3378906,55.1738281,75.4335938,53.0917969,74.612793,51.3027344    z M71.7597656,55.371582c-0.4941406,0.8549805-1.3793945,1.4223633-2.2763672,1.5117188l-13.7618408,0.0054932    l-4.2438354,0.0016479l-7.7521362,0.0031128l-0.222168-0.0043945c-0.9897461-0.0952148-1.875-0.6625977-2.3691406-1.5175781    c-0.1554565-0.2694092-0.2511597-0.5596924-0.3190918-0.8545532c-0.1484375-0.6439819-0.1053467-1.3158569,0.1525879-1.8822632    l0.1035156-0.1943359l3.9907227-6.4126587l8.6103516-13.8358765c0.019043-0.0302734,0.0366211-0.0610352,0.0532227-0.0922852    l0.0917969-0.1552734c0.0385742-0.0634766,0.078125-0.1254883,0.1220703-0.1870117    c0.5776367-0.8095703,1.5117188-1.2929688,2.4985352-1.2929688c0.9902344,0,1.9262695,0.4858398,2.5043945,1.300293    c0.0419922,0.059082,0.0800781,0.1196289,0.144043,0.2250977l0.0629883,0.1054688    c0.015625,0.0302734,0.0327148,0.0595703,0.0507812,0.0883789L71.815918,52.4570312    c0.0224609,0.0361328,0.0458984,0.0708008,0.0712891,0.1040039l0.015625,0.0297852    C72.3007812,53.4892578,72.2480469,54.5253906,71.7597656,55.371582z"/><path fill="#000000" d="M56.4467773,48.1469727c0.8286133,0,1.5-0.6713867,1.5-1.5v-0.4685059v-7.8449707    c0-0.8286133-0.6713867-1.5-1.5-1.5s-1.5,0.6713867-1.5,1.5v4.8443604v3.4691162    C54.9467773,47.4755859,55.6181641,48.1469727,56.4467773,48.1469727z"/><path fill="#000000" d="M57.5013428,50.503479c-0.3017578-0.2017822-0.6640625-0.3201904-1.0543213-0.3201904    c-1.0493164,0-1.9000244,0.850708-1.9000244,1.9000244c0,0.4832153,0.1860962,0.9193726,0.4832153,1.2546387    c0.3481445,0.3928223,0.850708,0.6453857,1.4168091,0.6453857c1.0493164,0,1.9000244-0.850708,1.9000244-1.9000244    C58.3470459,51.4242554,58.0109863,50.8442383,57.5013428,50.503479z"/></g></g></svg>