<svg xmlns="http://www.w3.org/2000/svg" xmlns:xlink="http://www.w3.org/1999/xlink" version="1.0" x="0px" y="0px" viewBox="0 0 100 100" enable-background="new 0 0 100 100" xml:space="preserve"><g><g><path d="M85.5998001,28.1669006h-4.8000031c-0.0332336,0-0.0611954,0.0163193-0.0937195,0.018959v-3.8193588    c0-0.6626415-0.5373611-1.2000008-1.1999969-1.2000008c-18.493679,0-27.1150818,4.1293201-29.5060806,5.528759    c-2.3909988-1.3994389-11.0124016-5.528759-29.5060806-5.528759c-0.6626396,0-1.1999989,0.5373592-1.1999989,1.2000008v3.8193588    c-0.0325203-0.0026398-0.0604801-0.018959-0.0937214-0.018959h-4.7999992c-0.6626396,0-1.1999998,0.5373592-1.1999998,1.1999989    v46.5996017c0,0.6627579,0.5373602,1.1999969,1.1999998,1.1999969h21.1997986    c0.6626434,0,1.2000008-0.5372391,1.2000008-1.1999969c0-0.6626358-0.5373573-1.1999969-1.2000008-1.1999969H15.6001997    V30.5669003h3.5999994c0.0332413,0,0.0612011-0.0163212,0.0937214-0.018961v38.4711571    c0,0.6626434,0.5373592,1.2000046,1.1999989,1.2000046c20.8078804,0,28.6752014,5.4292755,28.800602,5.5183182    c0.0405579,0.0294037,0.0868797,0.0419998,0.1296005,0.0656433c0.0233994,0.0129547,0.0428391,0.0295181,0.0669594,0.0409164    c0.0291595,0.0138016,0.0573578,0.0259247,0.0875969,0.0374374c0.1369209,0.0517273,0.2778015,0.085083,0.4201202,0.085083    l0.0006027-0.0001221c0.0001183,0,0.0003586,0.0001221,0.0003586,0.0001221c0.0142822,0,0.0259209-0.0075607,0.039959-0.0080414    c0.1280403-0.0039597,0.2544022-0.0306015,0.3774033-0.0761948c0.0287971-0.0108032,0.0565186-0.0202866,0.08424-0.0332413    c0.030838-0.0141602,0.0556793-0.0351639,0.0853195-0.0519638c0.0386391-0.0217209,0.0807571-0.0326385,0.1175995-0.0590363    c0.0767975-0.0550842,7.9277992-5.5189209,28.8017998-5.5189209c0.6626358,0,1.1999969-0.5373611,1.1999969-1.2000046V30.5479393    c0.0325241,0.0026398,0.0604858,0.018961,0.0937195,0.018961h3.6000061v44.1996002H62    c-0.6626396,0-1.2000008,0.5373611-1.2000008,1.1999969c0,0.6627579,0.5373611,1.1999969,1.2000008,1.1999969h23.5998001    c0.6627579,0,1.1999969-0.5372391,1.1999969-1.1999969V29.3668995    C86.7997971,28.7042599,86.262558,28.1669006,85.5998001,28.1669006z M21.6939201,25.5723801    c17.1722412,0.1758003,25.1563187,4.0815601,27.1060791,5.2073994v41.9271622    c-3.418438-1.6850433-11.6971207-4.7307587-27.1060791-4.8820801V25.5723801z M78.3060837,67.8248596    c-15.4089622,0.1513214-23.6877632,3.1971588-27.1060829,4.8820801V30.7752209    c1.9358406-1.1322002,9.8371201-5.0287209,27.1060829-5.2028408V67.8248596z"/><path d="M28.1725998,36.5856209c5.6666412,0.4060783,10.6747208,1.2709198,14.8846817,2.5711174    c0.1177177,0.0363617,0.2366371,0.0538826,0.3544769,0.0538826c0.512043,0,0.9866409-0.3310814,1.1459999-0.8465996    c0.1957207-0.6328812-0.159359-1.304882-0.792717-1.5006027c-4.3839607-1.3535995-9.5725212-2.2529984-15.4213219-2.671917    c-0.6526794-0.0386429-1.2357597,0.4505997-1.2825603,1.111557    C27.0136395,35.9640198,27.5111599,36.5382195,28.1725998,36.5856209z"/><path d="M43.7650414,44.3329391c-4.3839607-1.3535995-9.5725212-2.2529984-15.4213219-2.6719208    c-0.6526794-0.0351601-1.2357597,0.4506035-1.2825603,1.1115608c-0.0475197,0.6609612,0.4500008,1.2351608,1.1114407,1.2825623    c5.6666412,0.4060783,10.6747208,1.2709198,14.8846817,2.5711174c0.1177177,0.0363617,0.2366371,0.0538826,0.3544769,0.0538826    c0.512043,0,0.9866409-0.3309631,1.1459999-0.8465996C44.753479,45.2006607,44.3983994,44.5286598,43.7650414,44.3329391z"/><path d="M43.7650414,51.8024597c-4.3839607-1.3534813-9.5725212-2.2529984-15.4213219-2.6719208    c-0.6526794-0.031559-1.2357597,0.4500008-1.2825603,1.1115608c-0.0475197,0.6609612,0.4500008,1.2351608,1.1114407,1.2825584    c5.6666412,0.4060822,10.6747208,1.2709236,14.8846817,2.5711212c0.1177177,0.0363617,0.2366371,0.0538788,0.3544769,0.0538788    c0.512043,0,0.9866409-0.3309593,1.1459999-0.8465996C44.753479,52.6701813,44.3983994,51.9981804,43.7650414,51.8024597z"/><path d="M43.7650414,59.2719803c-4.3839607-1.3534813-9.5725212-2.2528801-15.4213219-2.6719208    c-0.6526794-0.0409203-1.2357597,0.4505997-1.2825603,1.1115608c-0.0475197,0.6609612,0.4500008,1.2351608,1.1114407,1.2825584    c5.6666412,0.4060822,10.6747208,1.2709198,14.8846817,2.5711212c0.1177177,0.0363617,0.2366371,0.0538788,0.3544769,0.0538788    c0.512043,0,0.9866409-0.3309593,1.1459999-0.8465996C44.753479,60.1397018,44.3983994,59.467701,43.7650414,59.2719803z"/><path d="M56.5882416,39.2106209c0.1172371,0,0.2367592-0.0175209,0.3544769-0.0538826    c4.2099609-1.3001976,9.2180405-2.1650391,14.8846817-2.5711174c0.661438-0.0474014,1.1589584-0.6216011,1.1114426-1.2825623    c-0.0474014-0.6609573-0.6193237-1.1479187-1.2825623-1.111557c-5.8488007,0.4189186-11.0373611,1.3183174-15.4213219,2.671917    c-0.633358,0.1957207-0.9884377,0.8677216-0.792717,1.5006027C55.6016006,38.8795395,56.0761986,39.2106209,56.5882416,39.2106209    z"/><path d="M56.5882416,46.6801414c0.1172371,0,0.2367592-0.0175209,0.3544769-0.0538826    c4.2099609-1.3001976,9.2180405-2.1650391,14.8846817-2.5711174c0.661438-0.0474014,1.1589584-0.6216011,1.1114426-1.2825623    c-0.0474014-0.6609573-0.6193237-1.1443176-1.2825623-1.1115608c-5.8488007,0.4189224-11.0373611,1.3183212-15.4213219,2.6719208    c-0.633358,0.1957207-0.9884377,0.8677216-0.792717,1.5006027C55.6016006,46.3491783,56.0761986,46.6801414,56.5882416,46.6801414    z"/><path d="M56.5882416,54.1496582c0.1172371,0,0.2367592-0.0175171,0.3544769-0.0538788    c4.2099609-1.3001976,9.2180405-2.1650391,14.8846817-2.5711212c0.661438-0.0473976,1.1589584-0.6215973,1.1114426-1.2825584    c-0.0474014-0.6615601-0.6193237-1.1408386-1.2825623-1.1115608c-5.8488007,0.4189224-11.0373611,1.3184395-15.4213219,2.6719208    c-0.633358,0.1957207-0.9884377,0.8677216-0.792717,1.5005989C55.6016006,53.8186989,56.0761986,54.1496582,56.5882416,54.1496582    z"/><path d="M71.6562805,56.6000595c-5.8488007,0.4190407-11.0373611,1.3184395-15.4213219,2.6719208    c-0.633358,0.1957207-0.9884377,0.8677216-0.792717,1.5005989c0.159359,0.5156403,0.6339569,0.8465996,1.1459999,0.8465996    c0.1172371,0,0.2367592-0.0175171,0.3544769-0.0538788c4.2099609-1.3002014,9.2180405-2.1650391,14.8846817-2.5711212    c0.661438-0.0473976,1.1589584-0.6215973,1.1114426-1.2825584C72.8914413,57.0506592,72.319519,56.5614204,71.6562805,56.6000595z    "/></g></g></svg>